<svg width="400" height="267" viewBox="0 0 400 267" fill="none" xmlns="http://www.w3.org/2000/svg">
<path d="M285.182 151.603V151.894C285.182 171.153 271.117 185.305 248.261 185.305C229.802 185.305 217.055 178.01 208.266 167.651L223.796 152.914C230.828 160.795 238.153 165.169 248.555 165.169C257.052 165.169 263.06 160.356 263.06 152.769C262.947 152.568 264.717 139.494 242.988 139.494H233.612L230.094 125.193L262.993 92.2363L249.809 100.684H214.273V81.4271H283.569V98.3509L257.639 123.007C271.557 125.342 285.182 132.635 285.182 151.603ZM220.865 34.7267C220.865 25.4803 227.522 18.0381 236.863 18.0381H247.39L244.635 19.4079C244.759 44.7514 244.131 47.9435 245.755 51.6485L236.98 51.6465C227.639 51.6465 220.865 44.0877 220.865 34.8433V34.7267ZM236.863 55.8925H246.211V52.5395C246.892 53.7182 247.81 54.6334 249.162 55.273C252.136 56.681 249.975 55.796 335.246 56.0574V13.7941H330.749V51.5781C330.749 51.5781 252.779 51.8778 251.297 51.214C250.011 50.6367 249.543 49.3173 249.329 47.9113C248.989 45.6284 249.196 45.5861 249.134 13.7941H236.98C224.544 13.7941 216.078 23.6198 216.078 34.8433V34.96C216.078 46.1815 224.427 55.8925 236.863 55.8925ZM368.393 9.31274H358.54C358.753 6.06233 357.245 0 363.884 0H367.057V3.12168C363.984 3.34896 362.216 2.37545 362.216 4.82331V5.85918H368.393V9.31274ZM379.783 56.514C378.583 56.514 377.364 56.3471 376.128 56.0092L377.309 51.6988C379.343 52.276 381.944 52.3102 383.016 50.4959C384.268 48.3478 383.821 47.5915 383.887 13.7941H388.385C388.256 45.3428 388.695 46.2238 387.963 49.8805C387.1 54.1587 384.5 56.514 379.783 56.514ZM249.134 9.31274H244.635V4.83337H249.134V9.31274ZM348.126 24.7683C350.236 20.667 354.667 18.3841 359.197 18.3358V18.3278H366.464L363.896 19.605V39.7189C360.356 39.6143 357.868 40.0548 354.59 39.0169C350.115 37.613 347.083 34.1775 347.083 29.1913C347.083 27.5882 347.43 26.1119 348.126 24.7683ZM348.126 40.6422C353.982 44.8057 361.966 44.1178 362.384 44.1963L363.896 41.0364C363.652 44.0997 364.74 48.38 361.872 50.5241C359.447 52.3323 355.123 52.274 352.454 51.6424C351.349 51.383 350.083 50.9344 348.658 50.3008L347.253 54.6113C350.103 55.6592 352.829 56.514 355.854 56.514C360.241 56.514 363.426 55.4782 365.414 53.4084C367.399 51.3347 368.393 48.5449 368.393 45.037V13.7941C362.858 13.9671 358.658 13.237 353.607 14.9708C340.07 19.6151 339.8 34.7287 348.126 40.6422ZM240.137 9.31274H235.638V4.83337H240.137V9.31274ZM193.58 13.7458H198.225V55.806H194.423L164.51 17.9738L167.154 24.1045V55.806H162.508V13.7458H166.973L195.538 49.9307L193.58 44.7695V13.7458ZM18.161 56.1057L0 13.7458H5.30981C5.57994 14.3975 20.0539 49.3052 21.5215 52.8453L21.0619 48.2231L35.4169 13.7458H40.5433L22.3843 56.1057H18.161ZM98.6408 13.7458H103.406V55.804H98.6408V13.7458ZM149.759 34.8956C149.759 44.4497 142.883 52.1393 133.229 52.1393C123.575 52.1393 116.576 44.329 116.576 34.7769V34.6542C116.576 25.1021 123.456 17.4126 133.108 17.4126C142.762 17.4126 149.759 25.2228 149.759 34.7769V34.8956ZM133.229 13.0258C120.378 13.0258 111.629 23.1793 111.629 34.7769V34.8956C111.629 46.4913 120.257 56.5261 133.108 56.5261C145.959 56.5261 154.708 46.3726 154.708 34.7769V34.6542C154.708 23.0606 146.08 13.0258 133.229 13.0258ZM90.7769 44.3894V44.508C90.7769 51.7169 84.7434 56.4054 76.3573 56.4054C69.6606 56.4054 64.1714 54.1828 59.1034 49.6753L62.0587 46.1916C66.4634 50.156 70.6867 52.1372 76.5408 52.1372C82.2114 52.1372 85.9509 49.1363 85.9509 44.9888V44.8701C85.9509 33.1316 60.7927 40.8755 60.7927 24.7401V24.6214C60.7927 18.012 66.6448 13.1444 74.67 13.1444C80.8225 13.1444 85.2272 14.8883 89.5109 18.3137L86.7371 21.9764C77.1617 14.2044 65.5583 17.1813 65.5583 24.201V24.3217C65.5583 28.2862 67.7294 30.5088 77.0226 32.492C86.4347 34.5356 90.7769 37.961 90.7769 44.3894ZM51.7838 55.806H47.0183V13.7479H51.7838V55.806ZM329.178 60.5348H333.678V65.0142H329.178V60.5348ZM320.181 60.5348H324.681V65.0142H320.181V60.5348ZM37.717 164.148H76.821V183.555H0.929318V165.755C38.8499 133.645 52.7938 127.369 52.7938 113.378C52.7938 104.769 47.0787 100.101 39.0213 100.101C31.109 100.101 25.6883 104.476 18.0703 113.812L2.2477 101.123C12.3573 87.407 22.1746 79.9648 40.4868 79.9648C61.7301 79.9648 75.7949 92.3671 75.7949 111.481V111.771C75.7949 135.739 57.6097 143.464 26.4261 168.538L22.0718 171.885L37.717 164.148ZM376.414 132.782C376.414 150.289 363.815 164.588 345.646 164.588C327.479 164.588 314.587 149.997 314.587 132.488V132.197C314.587 114.689 327.189 100.393 345.354 100.393C363.519 100.393 376.414 114.983 376.414 132.488V132.782ZM345.646 79.6752C314.003 79.6752 291 103.456 291 132.488V132.782C291 161.816 313.706 185.305 345.354 185.305C377.001 185.305 400 161.523 400 132.488V132.197C400 103.164 377.291 79.6752 345.646 79.6752Z" fill="#ADA9AE"/>
<path d="M138.136 72.9561L143.331 77.9202L138.345 83.0915L133.152 78.1273" fill="#29367B"/>
<path d="M150 78.1273L155.191 83.0915L160.176 77.9202L154.983 72.9561" fill="#B1AEB3"/>
<path d="M142.697 84.6469L146.743 88.5108L150.621 84.484L146.579 80.6201" fill="#D0DA33"/>
<path d="M157.541 86.8588L161.584 90.7247L165.463 86.6979L161.419 82.832" fill="#71BA44"/>
<path d="M136.073 90.8051L140.117 94.671L143.996 90.6442L139.956 86.7783" fill="#D0DA33"/>
<path d="M149.66 91.2729L153.702 95.1388L157.583 91.112L153.539 87.2461" fill="#27B8BE"/>
<path d="M144.361 95.9053L147.206 98.6247L149.935 95.7907L147.091 93.0713" fill="#71BA44"/>
<path d="M155.095 98.0381L157.94 100.757L160.671 97.9234L157.827 95.2061" fill="#58B75E"/>
<path d="M178.499 76.4922L187.322 74.878L188.937 83.6661L180.113 85.2803L178.499 76.4922Z" fill="#3088C8"/>
<path d="M166.984 80.1758L174.063 78.8825L175.357 85.9339L168.278 87.2271L166.984 80.1758Z" fill="#1E3871"/>
<path d="M180.672 90L187.751 88.705L189.047 95.756L181.968 97.051L180.672 90Z" fill="#27B8BE"/>
<path d="M170.924 91.0332L176.436 90.0255L177.444 95.5138L171.932 96.5214L170.924 91.0332Z" fill="#D0DA33"/>
<path d="M181.658 101.462L187.17 100.454L188.178 105.944L182.666 106.952L181.658 101.462Z" fill="#B1AEB3"/>
<path d="M162.67 93.2656L168.184 92.2576L169.192 97.7478L163.678 98.7558L162.67 93.2656Z" fill="#27B8BE"/>
<path d="M172.656 100.457L178.169 99.4494L179.177 104.94L173.664 105.947L172.656 100.457Z" fill="#71BA44"/>
<path d="M165.625 101.12L169.503 100.411L170.213 104.272L166.335 104.982L165.625 101.12Z" fill="#B1AEB3"/>
<path d="M173.098 109.104L176.974 108.397L177.682 112.258L173.805 112.965L173.098 109.104Z" fill="#58B75E"/>
<path d="M204.773 105.28L200.917 113.35L209.021 117.188L212.873 109.12" fill="#29367B"/>
<path d="M193.242 101.553L190.149 108.025L196.649 111.105L199.741 104.632" fill="#27B8BE"/>
<path d="M198.576 117.497L195.483 123.972L201.985 127.049L205.077 120.577" fill="#71BA44"/>
<path d="M190.043 112.642L187.636 117.682L192.698 120.08L195.107 115.039" fill="#D0DA33"/>
<path d="M192.626 127.351L190.217 132.391L195.277 134.789L197.688 129.748" fill="#D0DA33"/>
<path d="M182.062 109.64L179.653 114.68L184.715 117.078L187.124 112.037" fill="#3088C8"/>
<path d="M185.935 121.303L183.526 126.343L188.586 128.741L190.997 123.7" fill="#B1AEB3"/>
<path d="M179.855 117.749L178.159 121.295L181.719 122.981L183.415 119.437" fill="#71BA44"/>
<path d="M179.518 132.096L181.208 128.55L184.767 130.24L183.076 133.785L179.518 132.096Z" fill="#27B8BE"/>
<path d="M209.123 143.917L201.257 148.213L205.573 156.048L213.439 151.751" fill="#3088C8"/>
<path d="M201.996 134.194L195.686 137.642L199.147 143.925L205.457 140.478" fill="#27B8BE"/>
<path d="M196.937 150.224L190.625 153.671L194.088 159.957L200.398 156.509" fill="#27B8BE"/>
<path d="M192.888 141.322L187.976 144.007L190.669 148.899L195.586 146.216" fill="#29367B"/>
<path d="M186.335 154.748L181.42 157.433L184.115 162.325L189.03 159.642" fill="#58B75E"/>
<path d="M188.135 134.223L183.22 136.906L185.915 141.802L190.832 139.116" fill="#1E3871"/>
<path d="M184.466 145.946L179.552 148.631L182.247 153.523L187.162 150.84" fill="#D0DA33"/>
<path d="M181.616 139.518L178.159 141.406L180.056 144.848L183.511 142.961" fill="#B1AEB3"/>
<path d="M176.351 149.073L172.894 150.962L174.789 154.403L178.246 152.517" fill="#27B8BE"/>
<path d="M179.959 185.534L181.058 176.665L189.962 177.763L188.864 186.632L179.959 185.534Z" fill="#71BA44"/>
<path d="M181.861 171.99L182.745 164.876L189.887 165.759L189.003 172.873L181.861 171.99Z" fill="#1E3871"/>
<path d="M168.342 182.044L169.226 174.93L176.37 175.813L175.486 182.927L168.342 182.044Z" fill="#27B8BE"/>
<path d="M172.079 171.103L172.765 165.563L178.327 166.249L177.64 171.789L172.079 171.103Z" fill="#71BA44"/>
<path d="M158.866 178.163L159.552 172.624L165.114 173.31L164.428 178.849L158.866 178.163Z" fill="#B1AEB3"/>
<path d="M172.384 162.568L173.073 157.027L178.636 157.715L177.948 163.256L172.384 162.568Z" fill="#B1AEB3"/>
<path d="M162.5 169.919L163.188 164.38L168.752 165.068L168.064 170.607L162.5 169.919Z" fill="#71BA44"/>
<path d="M165.829 161.622L166.312 157.726L170.223 158.208L169.74 162.105L165.829 161.622Z" fill="#B1AEB3"/>
<path d="M155.944 166.299L156.427 162.402L160.34 162.885L159.858 166.782L155.944 166.299Z" fill="#B1AEB3"/>
<path d="M154.528 194.104L147.952 188.023L141.848 194.573L148.423 200.651" fill="#D0DA33"/>
<path d="M153.305 68.9476L146.729 62.8672L140.625 69.4163L147.201 75.4947" fill="#71BA44"/>
<path d="M161.531 184.295L156.255 179.417L151.359 184.671L156.634 189.546" fill="#27B8BE"/>
<path d="M144.685 184.574L139.407 179.696L134.511 184.95L139.786 189.826" fill="#71BA44"/>
<path d="M151.874 177.933L147.766 174.136L143.954 178.225L148.06 182.022" fill="#3088C8"/>
<path d="M136.995 175.968L132.888 172.171L129.076 176.26L133.185 180.06" fill="#D0DA33"/>
<path d="M157.139 171.221L153.031 167.424L149.219 171.513L153.325 175.31" fill="#D0DA33"/>
<path d="M144.808 171.424L140.7 167.627L136.888 171.716L140.994 175.514" fill="#B1AEB3"/>
<path d="M150.033 166.705L147.144 164.032L144.463 166.911L147.352 169.582" fill="#1E3871"/>
<path d="M139.268 164.746L136.379 162.075L133.696 164.951L136.585 167.623" fill="#B1AEB3"/>
<path d="M105.639 179.676L114.436 177.916L116.196 186.677L107.398 188.436L105.639 179.676Z" fill="#3088C8"/>
<path d="M119.191 177.187L126.248 175.775L127.66 182.804L120.603 184.215L119.191 177.187Z" fill="#27B8BE"/>
<path d="M105.333 167.582L112.389 166.17L113.802 173.198L106.746 174.611L105.333 167.582Z" fill="#71BA44"/>
<path d="M116.95 167.642L122.445 166.543L123.544 172.016L118.049 173.114L116.95 167.642Z" fill="#D0DA33"/>
<path d="M125.17 165.271L130.665 164.173L131.764 169.647L126.27 170.746L125.17 165.271Z" fill="#29367B"/>
<path d="M115.048 158.246L120.543 157.147L121.642 162.62L116.147 163.719L115.048 158.246Z" fill="#3088C8"/>
<path d="M124.016 158.773L127.883 158.002L128.655 161.852L124.788 162.623L124.016 158.773Z" fill="#71BA44"/>
<path d="M116.439 150.909L120.303 150.136L121.078 153.985L117.213 154.759L116.439 150.909Z" fill="#B1AEB3"/>
<path d="M89.4842 158.326L93.2035 150.196L85.0372 146.491L81.3179 154.621" fill="#27B8BE"/>
<path d="M101.049 161.865L104.032 155.342L97.4826 152.371L94.4971 158.894" fill="#D0DA33"/>
<path d="M95.4422 146.009L98.4277 139.487L91.8761 136.514L88.8926 143.039" fill="#3088C8"/>
<path d="M98.9468 148.417L101.269 143.337L106.366 145.656L104.044 150.736L98.9468 148.417Z" fill="#27B8BE"/>
<path d="M110.875 163.423L113.199 158.344L108.099 156.031L105.774 161.11" fill="#B1AEB3"/>
<path d="M96.1616 133.746L98.4846 128.666L103.581 130.987L101.258 136.066L96.1616 133.746Z" fill="#29367B"/>
<path d="M107.031 151.278L109.354 146.198L114.451 148.519L112.128 153.599L107.031 151.278Z" fill="#58B75E"/>
<path d="M102.921 139.691L105.246 134.612L110.342 136.934L108.017 142.013L102.921 139.691Z" fill="#D0DA33"/>
<path d="M114.186 145.448L115.821 141.875L112.233 140.246L110.598 143.82" fill="#1E3871"/>
<path d="M112.658 134.658L114.292 131.083L110.704 129.456L109.069 133.03" fill="#71BA44"/>
<path d="M84.4724 119.766L92.2677 115.341L87.8207 107.579L80.0273 112.004" fill="#27B8BE"/>
<path d="M91.7795 129.373L98.0327 125.823L94.4646 119.596L88.2134 123.148" fill="#71BA44"/>
<path d="M96.569 113.262L102.822 109.712L99.2542 103.482L93.0029 107.035" fill="#1E3871"/>
<path d="M100.774 122.094L105.64 119.328L102.864 114.48L97.9961 117.244" fill="#3088C8"/>
<path d="M107.092 108.562L111.958 105.797L109.182 100.949L104.314 103.713" fill="#71BA44"/>
<path d="M105.595 129.115L110.466 126.351L107.69 121.502L102.819 124.268" fill="#27B8BE"/>
<path d="M109.094 117.332L113.962 114.568L111.186 109.719L106.318 112.484" fill="#D0DA33"/>
<path d="M112.075 123.713L115.5 121.768L113.547 118.358L110.122 120.301" fill="#B1AEB3"/>
<path d="M117.171 114.073L120.598 112.128L118.644 108.719L115.217 110.664" fill="#71BA44"/>
<path d="M103.057 85.585L104.009 76.701L112.929 77.6524L111.977 86.5364L103.057 85.585Z" fill="#71BA44"/>
<path d="M103.329 97.623L104.093 90.4971L111.251 91.2614L110.486 98.3873L103.329 97.623Z" fill="#B1AEB3"/>
<path d="M116.678 87.3457L117.443 80.2178L124.601 80.9821L123.836 88.11L116.678 87.3457Z" fill="#27B8BE"/>
<path d="M114.912 96.9619L115.507 91.4121L121.08 92.0076L120.484 97.5575L114.912 96.9619Z" fill="#D0DA33"/>
<path d="M127.989 89.6611L128.583 84.111L134.155 84.7043L133.562 90.2544L127.989 89.6611Z" fill="#3088C8"/>
<path d="M114.708 105.482L115.304 99.9326L120.876 100.528L120.28 106.078L114.708 105.482Z" fill="#27B8BE"/>
<path d="M124.491 97.96L125.087 92.4101L130.659 93.0056L130.063 98.5555L124.491 97.96Z" fill="#71BA44"/>
<path d="M123.132 104.861L123.551 100.957L127.471 101.376L127.053 105.28L123.132 104.861Z" fill="#1E3871"/>
<path d="M132.915 100.011L133.331 96.1066L137.254 96.523L136.837 100.427L132.915 100.011Z" fill="#B1AEB3"/>
<path d="M175.274 137.247C170.577 134.547 164.041 133.763 157.27 136.237C154.311 137.353 151.347 139.302 148.848 141.211C147.273 131.687 148.041 122.847 148.408 118.505C148.41 118.48 148.438 118.468 148.461 118.482C151.841 120.604 150.894 126.534 150.184 128.23C150.17 128.264 150.22 128.286 150.245 128.258C154.458 123.294 152.4 117.813 151.535 116.425C151.378 116.173 152.331 116.936 153.113 117.935C156.058 121.676 154.698 125.878 155.026 125.78C155.034 125.778 155.044 125.78 155.048 125.77C157.006 121.938 156.377 117.078 152.351 113.569C152.168 113.414 152.885 113.647 153.113 113.727C156.546 114.916 158.336 118.444 158.312 121.59C158.312 122.282 160.63 115.681 155.026 112.326C153.978 111.7 152.902 111.356 152.198 111.272C151.65 111.213 155.2 110.68 157.693 112.366C159.191 113.373 159.584 114.592 159.546 114.25C159.11 109.831 153.889 108.086 150.724 109.411C150.39 109.578 151.97 107.241 155.026 107.422C155.615 107.456 156.159 107.583 156.595 107.79C156.625 107.804 156.653 107.764 156.631 107.738C154.323 105.105 150.525 105.05 148.509 108.096C148.495 108.116 148.465 108.116 148.453 108.096C147.689 106.73 147.049 104.982 146.773 103.333C146.707 102.91 146.566 105.374 145.034 108.096C145.022 108.116 144.993 108.116 144.979 108.096C142.957 105.042 139.163 105.103 136.857 107.738C136.833 107.764 136.861 107.804 136.894 107.79C138.434 107.06 141.343 107.275 142.8 109.361C142.818 109.389 142.792 109.425 142.76 109.411C139.498 108.043 134.374 109.9 133.94 114.25C133.938 114.287 133.987 114.307 134.005 114.275C134.15 114.003 134.509 113.424 135.18 112.836C137.789 110.543 141.891 111.207 141.288 111.272C139.685 111.469 136.396 112.893 135.18 116.147C134.186 118.806 135.144 122.308 135.18 121.441C135.212 118.482 136.912 114.52 141.107 113.51C141.139 113.502 141.163 113.546 141.137 113.569C134.618 119.287 138.561 126.309 138.5 125.754C138.299 123.487 138.131 119.44 141.899 116.385C141.927 116.362 141.971 116.393 141.951 116.425C141.087 117.813 139.03 123.294 143.241 128.258C143.266 128.286 143.316 128.264 143.302 128.23C142.594 126.534 141.647 120.604 145.026 118.482C145.048 118.468 145.076 118.48 145.078 118.505C145.447 122.847 146.215 131.687 144.638 141.211C139.284 137.128 134.013 134.451 127.223 134.748C123.808 134.897 120.569 135.889 118.212 137.247C118.128 137.295 118.19 137.418 118.281 137.389C128.157 134.24 136.704 138.061 144.651 144.659C140.637 148.148 136.994 151.801 134.878 152.903C134.384 152.229 133.527 151.841 132.59 152.044C130.824 152.433 130.402 154.639 131.36 155.589C134.829 159.042 140.254 152.189 146.743 146.461C152.988 151.968 158.663 159.04 162.126 155.589C162.402 155.313 162.723 154.404 162.558 153.682C162.14 151.88 159.739 151.359 158.609 152.903C156.572 151.88 152.998 148.275 148.836 144.659C156.839 138.003 165.293 134.288 175.203 137.389C175.296 137.418 175.358 137.295 175.274 137.247Z" fill="#727A82"/>
<path d="M143.663 231.527H146.237V208.524H143.663V231.527ZM76.21 228.962L72.1883 219.124C76.3491 215.611 81.5117 216.256 84.8339 219.124L80.8122 228.962H76.21ZM62.0182 228.962C59.9943 228.902 58.5711 229.153 56.6923 228.564C49.7355 226.371 51.6264 216.721 59.4117 216.721H62.0182V228.962ZM133.59 228.962C129.443 228.835 125.708 229.692 123.807 226.4C124.182 224.754 123.976 223.278 124.033 215.727H121.458V224.412C121.458 230.786 113.75 230.372 111.931 226.544C111.202 225.006 111.647 224.362 111.514 215.727H108.938V224.605C108.938 227.502 107.121 228.962 104.594 228.962H99.6062V215.727H97.032V228.962H83.5155L88.021 218.227C85.4649 215.999 81.9068 213.901 78.496 213.901C75.0307 213.901 71.5412 215.908 68.969 218.227L73.5067 228.962H64.5925V214.126H60.4741C54.6522 214.126 49.8202 217.465 49.8202 222.938C49.8202 232.679 61.7965 231.478 62.0182 231.527C61.9779 231.842 62.3387 234.043 60.8591 235.149C59.4762 236.183 57.0068 236.153 55.4686 235.791C54.8357 235.64 54.112 235.385 53.2975 235.02L52.4932 237.488C54.1261 238.088 55.6843 238.579 57.416 238.579C62.3226 238.579 64.5925 236.137 64.5925 232.007V231.527C106.607 231.263 105.366 232.13 107.926 230.726C108.901 230.193 109.69 229.477 110.29 228.578C110.913 229.604 111.76 230.406 112.832 230.984C115.084 232.188 118.519 232.076 120.606 231.046C121.688 230.513 122.521 229.69 123.099 228.578C124.093 230.272 125.635 231.36 128.732 231.497V231.527H136.164V208.524H133.59V228.962ZM364.589 227.826C362.311 233.138 354.469 233.291 352.199 227.745C351.532 226.118 351.532 224.189 352.199 222.538C354.947 215.743 365.121 217.694 365.121 225.151C365.121 226.11 364.944 227.003 364.589 227.826ZM339.616 227.826C337.647 232.392 331.712 233.067 328.61 229.877C326.064 227.25 326.138 222.972 328.596 220.392C330.597 218.27 333.684 217.928 336.044 218.899C339.766 220.448 341.005 224.605 339.616 227.826ZM277.007 228.962C275.038 228.902 273.611 229.159 271.744 228.548C264.964 226.325 266.581 216.689 274.463 216.689H277.007V228.962ZM375.739 228.962H366.891C369.653 222.914 365.363 215.824 358.297 215.824C351.79 215.824 347.238 222.477 349.897 228.962H341.916C344.608 223.091 340.53 215.824 333.325 215.824C326.814 215.824 322.266 222.479 324.925 228.962H316.75V208.524H314.176V228.962H305.971C305.83 226.329 306.57 222.433 304.361 219.973C302.863 218.288 301.196 217.763 298.922 217.763H287.53L292.376 208.524H289.576L284.633 217.731C284.793 218.752 285.103 219.551 285.792 220.325C298.668 220.434 299.508 220.056 301.03 220.695C302.224 221.188 302.952 222.087 303.204 223.179C303.51 224.495 303.355 225.484 303.397 228.962H279.582V214.126H275.526C268.704 214.126 264.906 218.175 264.906 222.841C264.906 228.689 269.619 231.527 275.526 231.527H326.598C330.386 235.598 336.762 235.252 340.243 231.527H351.57C355.346 235.586 361.716 235.266 365.218 231.527H378.315V208.524H375.739V228.962ZM385.812 231.527H388.386V208.524H385.812V231.527ZM196.122 237.171H198.767V234.538H196.122V237.171ZM221.293 228.962L217.269 219.124C221.397 215.637 226.552 216.226 229.916 219.124L225.895 228.962H221.293ZM239.538 228.962H228.598L233.102 218.227C230.539 215.987 226.969 213.901 223.576 213.901C220.099 213.901 216.62 215.918 214.049 218.227L218.587 228.962H209V214.126H206.423V232.072C206.423 234.339 206.258 236.014 203.978 236.014C203.448 236.014 203.168 235.968 202.66 235.821L201.984 238.291C204.135 238.878 206.675 238.681 207.937 236.831C209.078 235.155 208.943 232.842 209 231.527H242.114V208.524H239.538V228.962ZM44.0931 216.369C41.2305 213.251 37.9164 214.382 36.7875 214.126V216.689C38.6663 216.761 39.5352 216.481 40.8092 217.089C41.8816 217.604 42.6396 218.435 42.9501 219.605C43.2988 220.951 43.1033 222.001 43.1597 228.962H31.0907V231.527H45.734C45.6271 221.812 46.0001 220.782 45.3308 218.612C45.0627 217.737 44.6494 216.988 44.0931 216.369ZM186.71 237.201H189.355V234.568H186.71V237.201ZM171.057 228.962C169.091 228.902 167.662 229.159 165.793 228.548C159.006 226.323 160.641 216.689 168.513 216.689H171.057V228.962ZM198.733 214.126H196.159V228.962H186.44V214.126H183.866V228.962H173.631V214.126C170.394 214.227 165.564 213.472 161.852 216.608C156.591 221.055 157.948 231.527 169.577 231.527H198.733V214.126ZM182.201 237.201H184.845V234.568H182.201V237.201ZM10.1558 208.524H7.51098V211.157H10.1558V208.524ZM275.06 208.524H272.415V211.157H275.06V208.524ZM173.619 208.524H170.974V211.157H173.619V208.524ZM25.3434 237.201H27.9882V234.568H25.3434V237.201ZM169.11 208.524H166.465V211.157H169.11V208.524ZM14.6653 208.524H12.0205V211.157H14.6653V208.524ZM20.8339 237.201H23.4787V234.568H20.8339V237.201ZM12.1031 228.962C10.1417 228.902 8.70437 229.159 6.84171 228.548C0.0663489 226.331 1.66695 216.689 9.56112 216.689H12.1031V228.962ZM27.4863 214.126H24.912V228.962H14.6774V214.126C11.5911 214.221 9.13779 213.818 6.24501 214.782C3.81991 215.594 1.8383 217.089 0.757794 219.382C-0.367064 221.767 -0.163461 224.805 0.872699 226.752C2.73738 230.264 6.6381 231.527 10.6215 231.527H27.4863V214.126ZM249.612 231.527H252.186V208.524H249.612V231.527ZM279.567 208.524H276.923V211.157H279.567V208.524Z" fill="#ADA9AE"/>
<path d="M2.51367 248.374H5.74512V257.582L14.492 248.374H18.4592L10.815 256.249L18.7999 266.686H14.8871L8.60968 258.445L5.74512 261.376V266.686H2.51367" fill="#ADA9AE"/>
<path d="M21.7729 248.374H25.0044V266.686H21.7729V248.374Z" fill="#ADA9AE"/>
<path d="M29.9595 248.374H32.9551L42.8066 261.036V248.374H45.9837V266.686H43.2784L33.1385 253.658V266.686H29.9595" fill="#ADA9AE"/>
<path d="M50 257.583V257.53C50 252.403 53.941 248.059 59.4827 248.059C62.6879 248.059 64.6594 248.95 66.5503 250.545L64.5022 252.978C59.523 248.759 53.3907 251.798 53.3907 257.478V257.53C53.3907 261.298 55.8843 264.069 59.6399 264.069C61.3756 264.069 62.952 263.52 64.0809 262.683V259.256H59.3778V256.458H67.2075V264.148C60.6317 269.753 50 266.873 50 257.583Z" fill="#ADA9AE"/>
<path d="M78.5274 263.755C87.1029 263.755 87.0001 251.303 78.5274 251.303H74.9028V263.755H78.5274ZM71.6714 248.374H78.5274C91.6467 248.374 91.4693 266.686 78.5274 266.686H71.6714V248.374Z" fill="#ADA9AE"/>
<path d="M107.145 257.583V257.53C107.145 253.972 104.544 251.017 100.892 251.017C97.241 251.017 94.6929 253.92 94.6929 257.478V257.53C94.6929 261.088 97.2934 264.045 100.944 264.045C104.597 264.045 107.145 261.141 107.145 257.583ZM91.3042 257.583V257.53C91.3042 252.377 95.2976 248.059 100.944 248.059C106.593 248.059 110.534 252.325 110.534 257.478V257.53C110.534 262.683 106.542 267 100.892 267C95.2452 267 91.3042 262.736 91.3042 257.583Z" fill="#ADA9AE"/>
<path d="M114.572 248.374H118.013L123.609 257.033L129.203 248.374H132.644V266.686H129.413V253.553L123.609 262.186H123.504L117.751 253.606V266.686H114.572" fill="#ADA9AE"/>
<path d="M160.27 257.583V257.53C160.27 253.972 157.669 251.017 154.017 251.017C150.366 251.017 147.818 253.92 147.818 257.478V257.53C147.818 261.088 150.418 264.045 154.069 264.045C157.722 264.045 160.27 261.141 160.27 257.583ZM144.429 257.583V257.53C144.429 252.377 148.423 248.059 154.069 248.059C159.718 248.059 163.659 252.325 163.659 257.478V257.53C163.659 262.683 159.665 267 154.017 267C148.37 267 144.429 262.736 144.429 257.583Z" fill="#ADA9AE"/>
<path d="M167.697 248.374H181.383V251.305H170.928V256.301H180.201V259.229H170.928V266.686H167.697" fill="#ADA9AE"/>
<path d="M191.576 264.019L193.519 261.716C195.279 263.235 197.039 264.098 199.325 264.098C201.321 264.098 202.583 263.183 202.583 261.795V261.744C202.583 257.653 192.31 260.445 192.31 253.476V253.423C192.31 247.804 200.194 246.369 205.262 250.416L203.528 252.848C199.299 249.708 195.543 250.943 195.543 253.138V253.19C195.543 257.223 205.814 254.672 205.814 261.429V261.481C205.814 267.901 196.69 268.563 191.576 264.019Z" fill="#ADA9AE"/>
<path d="M220.325 259.414L217.146 252.089L213.993 259.414H220.325ZM215.701 248.243H218.694L226.786 266.686H223.371L221.506 262.265H212.81L210.921 266.686H207.609L215.701 248.243Z" fill="#ADA9AE"/>
<path d="M228.703 258.918V248.374H231.934V258.787C231.934 262.188 233.694 264.019 236.583 264.019C239.447 264.019 241.207 262.293 241.207 258.918V248.374H244.439V258.761C244.439 264.228 241.338 266.975 236.53 266.975C231.749 266.975 228.703 264.228 228.703 258.918Z" fill="#ADA9AE"/>
<path d="M256.007 263.755C264.582 263.755 264.482 251.303 256.007 251.303H252.382V263.755H256.007ZM249.151 248.374H256.007C269.126 248.374 268.949 266.686 256.007 266.686H249.151V248.374Z" fill="#ADA9AE"/>
<path d="M269.871 248.374H273.103V266.686H269.871V248.374Z" fill="#ADA9AE"/>
<path d="M297.057 259.414L293.878 252.089L290.725 259.414H297.057ZM292.433 248.243H295.426L303.518 266.686H300.103L298.238 262.265H289.542L287.653 266.686H284.341L292.433 248.243Z" fill="#ADA9AE"/>
<path d="M314.514 257.451C316.827 257.451 318.298 256.249 318.298 254.39V254.338C318.298 252.377 316.879 251.303 314.488 251.303H309.787V257.451H314.514ZM306.556 248.374H314.75C318.637 248.374 321.582 250.323 321.582 254.155C321.507 254.356 321.965 258.395 317.193 259.754L322.159 266.686H318.349L313.831 260.302C313.478 260.302 309.579 260.302 309.787 260.302V266.686H306.556V248.374Z" fill="#ADA9AE"/>
<path d="M337.241 259.414L334.062 252.089L330.909 259.414H337.241ZM332.616 248.243H335.612L343.701 266.686H340.287L338.422 262.265H329.725L327.837 266.686H324.524L332.616 248.243Z" fill="#ADA9AE"/>
<path d="M355.31 263.836C357.518 263.836 358.856 262.971 358.856 261.323V261.271C358.856 259.728 357.622 258.811 355.074 258.811H349.952V263.836H355.31ZM354.365 256.092C356.439 256.092 357.832 255.281 357.832 253.606V253.553C357.832 252.115 356.677 251.226 354.601 251.226H349.952V256.092H354.365ZM346.773 248.374H355.022C358.255 248.374 361.063 249.883 361.063 253.03C360.989 253.232 361.394 255.633 358.437 257.164C360.592 257.896 362.088 259.127 362.088 261.611V261.663C362.088 264.934 359.382 266.686 355.284 266.686H346.773V248.374Z" fill="#ADA9AE"/>
<path d="M366.101 248.374H369.332V266.686H366.101V248.374Z" fill="#ADA9AE"/>
<path d="M385.1 259.414L381.921 252.089L378.769 259.414H385.1ZM380.476 248.243H383.47L391.561 266.686H388.146L386.282 262.265H377.585L375.696 266.686H372.384L380.476 248.243Z" fill="#ADA9AE"/>
</svg>
