<svg width="334" height="56" viewBox="0 0 334 56" fill="none" xmlns="http://www.w3.org/2000/svg">
<path d="M3.54321 23C2.84721 23 2.30321 22.896 1.91121 22.688C1.52721 22.472 1.25521 22.144 1.09521 21.704C0.943207 21.256 0.867207 20.688 0.867207 20C0.867207 19.312 0.943207 18.748 1.09521 18.308C1.25521 17.86 1.52721 17.532 1.91121 17.324C2.30321 17.108 2.84721 17 3.54321 17H6.02721V22.52H5.09121V17.444L5.57121 17.852H3.54321C3.07921 17.852 2.71921 17.908 2.46321 18.02C2.21521 18.132 2.04321 18.344 1.94721 18.656C1.85121 18.96 1.80321 19.408 1.80321 20C1.80321 20.592 1.85121 21.044 1.94721 21.356C2.04321 21.66 2.21521 21.868 2.46321 21.98C2.71921 22.092 3.07921 22.148 3.54321 22.148H7.32321V23H3.54321ZM7.32321 23V22.148C7.37121 22.148 7.41121 22.16 7.44321 22.184C7.47521 22.2 7.49921 22.228 7.51521 22.268C7.53121 22.3 7.54321 22.344 7.55121 22.4C7.55921 22.448 7.56321 22.504 7.56321 22.568C7.56321 22.632 7.55921 22.692 7.55121 22.748C7.54321 22.804 7.53121 22.852 7.51521 22.892C7.49921 22.924 7.47521 22.952 7.44321 22.976C7.41121 22.992 7.37121 23 7.32321 23ZM2.37921 15.92V14.84H3.31521V15.92H2.37921ZM4.02321 15.92V14.84H4.95921V15.92H4.02321ZM7.32471 23V22.148H10.3247V23H7.32471ZM10.3247 23V22.148C10.3727 22.148 10.4127 22.16 10.4447 22.184C10.4767 22.2 10.5007 22.228 10.5167 22.268C10.5327 22.3 10.5447 22.344 10.5527 22.4C10.5607 22.448 10.5647 22.504 10.5647 22.568C10.5647 22.632 10.5607 22.692 10.5527 22.748C10.5447 22.804 10.5327 22.852 10.5167 22.892C10.5007 22.924 10.4767 22.952 10.4447 22.976C10.4127 22.992 10.3727 23 10.3247 23ZM7.32471 23C7.27671 23 7.23671 22.992 7.20471 22.976C7.17271 22.952 7.14871 22.924 7.13271 22.892C7.11671 22.852 7.10471 22.804 7.09671 22.748C7.08871 22.692 7.08471 22.632 7.08471 22.568C7.08471 22.48 7.09271 22.408 7.10871 22.352C7.11671 22.288 7.14071 22.24 7.18071 22.208C7.21271 22.168 7.26071 22.148 7.32471 22.148V23ZM10.3247 23V22.148H13.3247V23H10.3247ZM13.3247 23V22.148C13.3727 22.148 13.4127 22.16 13.4447 22.184C13.4767 22.2 13.5007 22.228 13.5167 22.268C13.5327 22.3 13.5447 22.344 13.5527 22.4C13.5607 22.448 13.5647 22.504 13.5647 22.568C13.5647 22.632 13.5607 22.692 13.5527 22.748C13.5447 22.804 13.5327 22.852 13.5167 22.892C13.5007 22.924 13.4767 22.952 13.4447 22.976C13.4127 22.992 13.3727 23 13.3247 23ZM10.3247 23C10.2767 23 10.2367 22.992 10.2047 22.976C10.1727 22.952 10.1487 22.924 10.1327 22.892C10.1167 22.852 10.1047 22.804 10.0967 22.748C10.0887 22.692 10.0847 22.632 10.0847 22.568C10.0847 22.48 10.0927 22.408 10.1087 22.352C10.1167 22.288 10.1407 22.24 10.1807 22.208C10.2127 22.168 10.2607 22.148 10.3247 22.148V23ZM15.5567 23V22.148H16.8527V23H15.5567ZM16.8527 23V22.148C16.9007 22.148 16.9407 22.16 16.9727 22.184C17.0047 22.2 17.0287 22.228 17.0447 22.268C17.0607 22.3 17.0727 22.344 17.0807 22.4C17.0887 22.448 17.0927 22.504 17.0927 22.568C17.0927 22.632 17.0887 22.692 17.0807 22.748C17.0727 22.804 17.0607 22.852 17.0447 22.892C17.0287 22.924 17.0047 22.952 16.9727 22.976C16.9407 22.992 16.9007 23 16.8527 23ZM13.3247 23C13.2767 23 13.2367 22.992 13.2047 22.976C13.1727 22.952 13.1487 22.924 13.1327 22.892C13.1167 22.852 13.1047 22.804 13.0967 22.748C13.0887 22.692 13.0847 22.632 13.0847 22.568C13.0847 22.48 13.0927 22.408 13.1087 22.352C13.1167 22.288 13.1407 22.24 13.1807 22.208C13.2127 22.168 13.2607 22.148 13.3247 22.148V23ZM13.3247 23V22.148H15.0527L14.6207 22.496V17H15.5567V23H13.3247ZM13.8047 25.16V24.08H14.7407V25.16H13.8047ZM15.4487 25.16V24.08H16.3847V25.16H15.4487ZM18.3041 23V14.396H19.2401V23H18.3041ZM16.8521 23V22.148H18.3041V23H16.8521ZM16.8521 23C16.8041 23 16.7641 22.992 16.7321 22.976C16.7001 22.952 16.6761 22.924 16.6601 22.892C16.6441 22.852 16.6321 22.804 16.6241 22.748C16.6161 22.692 16.6121 22.632 16.6121 22.568C16.6121 22.48 16.6201 22.408 16.6361 22.352C16.6441 22.288 16.6681 22.24 16.7081 22.208C16.7401 22.168 16.7881 22.148 16.8521 22.148V23ZM22.9527 25.652C22.6727 25.652 22.3727 25.628 22.0527 25.58C21.7407 25.54 21.3967 25.48 21.0207 25.4L21.1647 24.644C21.5887 24.7 21.9407 24.74 22.2207 24.764C22.5087 24.788 22.7527 24.8 22.9527 24.8C23.6167 24.8 24.1007 24.672 24.4047 24.416C24.7087 24.168 24.8607 23.804 24.8607 23.324V17.54L25.3407 17.852H23.3127C22.8487 17.852 22.4887 17.908 22.2327 18.02C21.9847 18.132 21.8127 18.344 21.7167 18.656C21.6207 18.96 21.5727 19.408 21.5727 20C21.5727 20.592 21.6207 21.044 21.7167 21.356C21.8127 21.66 21.9847 21.868 22.2327 21.98C22.4887 22.092 22.8487 22.148 23.3127 22.148H24.8607V23H23.3127C22.6167 23 22.0727 22.896 21.6807 22.688C21.2967 22.472 21.0247 22.144 20.8647 21.704C20.7127 21.256 20.6367 20.688 20.6367 20C20.6367 19.312 20.7127 18.748 20.8647 18.308C21.0247 17.86 21.2967 17.532 21.6807 17.324C22.0727 17.108 22.6167 17 23.3127 17H25.7967V23.312C25.7967 23.808 25.6807 24.232 25.4487 24.584C25.2247 24.936 24.9007 25.2 24.4767 25.376C24.0527 25.56 23.5447 25.652 22.9527 25.652ZM31.8198 23V22.148H33.1158V23H31.8198ZM27.1758 23V22.148H31.6518L30.8838 22.832V20.216C30.8838 19.624 30.8158 19.156 30.6798 18.812C30.5438 18.468 30.3198 18.224 30.0078 18.08C29.7038 17.928 29.2918 17.852 28.7718 17.852H27.7998V17H28.7718C29.4118 17 29.9598 17.1 30.4158 17.3C30.8718 17.5 31.2198 17.836 31.4598 18.308C31.6998 18.772 31.8198 19.408 31.8198 20.216V23H27.1758ZM33.1158 23V22.148C33.1638 22.148 33.2038 22.16 33.2358 22.184C33.2678 22.2 33.2918 22.228 33.3078 22.268C33.3238 22.3 33.3358 22.344 33.3438 22.4C33.3518 22.448 33.3558 22.504 33.3558 22.568C33.3558 22.632 33.3518 22.692 33.3438 22.748C33.3358 22.804 33.3238 22.852 33.3078 22.892C33.2918 22.924 33.2678 22.952 33.2358 22.976C33.2038 22.992 33.1638 23 33.1158 23ZM34.5697 23V14.396H35.5057V23H34.5697ZM33.1177 23V22.148H34.5697V23H33.1177ZM33.1177 23C33.0697 23 33.0297 22.992 32.9977 22.976C32.9657 22.952 32.9417 22.924 32.9257 22.892C32.9097 22.852 32.8977 22.804 32.8897 22.748C32.8817 22.692 32.8777 22.632 32.8777 22.568C32.8777 22.48 32.8857 22.408 32.9017 22.352C32.9097 22.288 32.9337 22.24 32.9737 22.208C33.0057 22.168 33.0537 22.148 33.1177 22.148V23ZM37.5744 23V14.396H38.4984V23H37.5744ZM166.097 25.976C165.633 25.976 165.201 25.908 164.801 25.772C164.401 25.644 164.049 25.46 163.745 25.22C163.449 24.988 163.217 24.708 163.049 24.38C162.881 24.052 162.797 23.692 162.797 23.3C162.797 23.14 162.809 22.928 162.833 22.664C162.865 22.4 162.901 22.104 162.941 21.776C162.989 21.44 163.041 21.1 163.097 20.756L164.021 20.888C163.933 21.424 163.861 21.912 163.805 22.352C163.757 22.792 163.733 23.104 163.733 23.288C163.733 23.648 163.833 23.964 164.033 24.236C164.233 24.516 164.509 24.732 164.861 24.884C165.221 25.044 165.633 25.124 166.097 25.124H169.493C170.101 25.124 170.561 24.956 170.873 24.62C171.193 24.292 171.353 23.788 171.353 23.108C171.353 22.78 171.301 22.524 171.197 22.34C171.101 22.148 170.925 21.988 170.669 21.86C170.421 21.732 170.065 21.6 169.601 21.464C169.193 21.344 168.825 21.228 168.497 21.116C168.169 21.004 167.889 20.872 167.657 20.72C167.425 20.568 167.245 20.372 167.117 20.132C166.997 19.892 166.937 19.58 166.937 19.196C166.937 18.7 167.037 18.292 167.237 17.972C167.445 17.644 167.741 17.4 168.125 17.24C168.509 17.08 168.973 17 169.517 17C169.789 17 170.101 17.02 170.453 17.06C170.805 17.1 171.297 17.172 171.929 17.276L171.821 18.056C171.261 17.992 170.793 17.944 170.417 17.912C170.041 17.872 169.729 17.852 169.481 17.852C169.113 17.852 168.809 17.9 168.569 17.996C168.329 18.084 168.149 18.224 168.029 18.416C167.917 18.6 167.861 18.844 167.861 19.148C167.861 19.396 167.901 19.596 167.981 19.748C168.061 19.9 168.185 20.028 168.353 20.132C168.521 20.228 168.729 20.316 168.977 20.396C169.225 20.468 169.517 20.552 169.853 20.648C170.229 20.752 170.565 20.868 170.861 20.996C171.157 21.116 171.409 21.268 171.617 21.452C171.833 21.628 171.997 21.856 172.109 22.136C172.221 22.408 172.277 22.748 172.277 23.156C172.277 23.708 172.169 24.196 171.953 24.62C171.737 25.044 171.421 25.376 171.005 25.616C170.597 25.856 170.093 25.976 169.493 25.976H166.097ZM173.555 23V22.148H178.031L177.263 22.832V20.216C177.263 19.624 177.195 19.156 177.059 18.812C176.923 18.468 176.699 18.224 176.387 18.08C176.083 17.928 175.671 17.852 175.151 17.852H174.179V17H175.151C175.791 17 176.339 17.1 176.795 17.3C177.251 17.5 177.599 17.836 177.839 18.308C178.079 18.772 178.199 19.408 178.199 20.216V23H173.555ZM184.515 23V22.148H185.811V23H184.515ZM181.671 25.652C181.391 25.652 181.091 25.628 180.771 25.58C180.459 25.54 180.115 25.48 179.739 25.4L179.883 24.644C180.307 24.7 180.659 24.74 180.939 24.764C181.227 24.788 181.471 24.8 181.671 24.8C182.335 24.8 182.819 24.672 183.123 24.416C183.427 24.168 183.579 23.804 183.579 23.324V17.54L184.059 17.852H182.031C181.567 17.852 181.207 17.908 180.951 18.02C180.703 18.132 180.531 18.344 180.435 18.656C180.339 18.96 180.291 19.408 180.291 20C180.291 20.592 180.339 21.044 180.435 21.356C180.531 21.66 180.703 21.868 180.951 21.98C181.207 22.092 181.567 22.148 182.031 22.148H183.579V23H182.031C181.335 23 180.791 22.896 180.399 22.688C180.015 22.472 179.743 22.144 179.583 21.704C179.431 21.256 179.355 20.688 179.355 20C179.355 19.312 179.431 18.748 179.583 18.308C179.743 17.86 180.015 17.532 180.399 17.324C180.791 17.108 181.335 17 182.031 17H184.515V23.312C184.515 23.808 184.399 24.232 184.167 24.584C183.943 24.936 183.619 25.2 183.195 25.376C182.771 25.56 182.263 25.652 181.671 25.652ZM185.811 23V22.148C185.859 22.148 185.899 22.16 185.931 22.184C185.963 22.2 185.987 22.228 186.003 22.268C186.019 22.3 186.031 22.344 186.039 22.4C186.047 22.448 186.051 22.504 186.051 22.568C186.051 22.632 186.047 22.692 186.039 22.748C186.031 22.804 186.019 22.852 186.003 22.892C185.987 22.924 185.963 22.952 185.931 22.976C185.899 22.992 185.859 23 185.811 23ZM185.813 23V22.148H188.813V23H185.813ZM188.813 23V22.148C188.861 22.148 188.901 22.16 188.933 22.184C188.965 22.2 188.989 22.228 189.005 22.268C189.021 22.3 189.033 22.344 189.041 22.4C189.049 22.448 189.053 22.504 189.053 22.568C189.053 22.632 189.049 22.692 189.041 22.748C189.033 22.804 189.021 22.852 189.005 22.892C188.989 22.924 188.965 22.952 188.933 22.976C188.901 22.992 188.861 23 188.813 23ZM185.813 23C185.765 23 185.725 22.992 185.693 22.976C185.661 22.952 185.637 22.924 185.621 22.892C185.605 22.852 185.593 22.804 185.585 22.748C185.577 22.692 185.573 22.632 185.573 22.568C185.573 22.48 185.581 22.408 185.597 22.352C185.605 22.288 185.629 22.24 185.669 22.208C185.701 22.168 185.749 22.148 185.813 22.148V23ZM188.813 23V22.148H191.813V23H188.813ZM191.813 23V22.148C191.861 22.148 191.901 22.16 191.933 22.184C191.965 22.2 191.989 22.228 192.005 22.268C192.021 22.3 192.033 22.344 192.041 22.4C192.049 22.448 192.053 22.504 192.053 22.568C192.053 22.632 192.049 22.692 192.041 22.748C192.033 22.804 192.021 22.852 192.005 22.892C191.989 22.924 191.965 22.952 191.933 22.976C191.901 22.992 191.861 23 191.813 23ZM188.813 23C188.765 23 188.725 22.992 188.693 22.976C188.661 22.952 188.637 22.924 188.621 22.892C188.605 22.852 188.593 22.804 188.585 22.748C188.577 22.692 188.573 22.632 188.573 22.568C188.573 22.48 188.581 22.408 188.597 22.352C188.605 22.288 188.629 22.24 188.669 22.208C188.701 22.168 188.749 22.148 188.813 22.148V23ZM191.813 23V22.148H194.813V23H191.813ZM194.813 23V22.148C194.861 22.148 194.901 22.16 194.933 22.184C194.965 22.2 194.989 22.228 195.005 22.268C195.021 22.3 195.033 22.344 195.041 22.4C195.049 22.448 195.053 22.504 195.053 22.568C195.053 22.632 195.049 22.692 195.041 22.748C195.033 22.804 195.021 22.852 195.005 22.892C194.989 22.924 194.965 22.952 194.933 22.976C194.901 22.992 194.861 23 194.813 23ZM191.813 23C191.765 23 191.725 22.992 191.693 22.976C191.661 22.952 191.637 22.924 191.621 22.892C191.605 22.852 191.593 22.804 191.585 22.748C191.577 22.692 191.573 22.632 191.573 22.568C191.573 22.48 191.581 22.408 191.597 22.352C191.605 22.288 191.629 22.24 191.669 22.208C191.701 22.168 191.749 22.148 191.813 22.148V23ZM194.813 23V22.148H197.813V23H194.813ZM197.813 23V22.148C197.861 22.148 197.901 22.16 197.933 22.184C197.965 22.2 197.989 22.228 198.005 22.268C198.021 22.3 198.033 22.344 198.041 22.4C198.049 22.448 198.053 22.504 198.053 22.568C198.053 22.632 198.049 22.692 198.041 22.748C198.033 22.804 198.021 22.852 198.005 22.892C197.989 22.924 197.965 22.952 197.933 22.976C197.901 22.992 197.861 23 197.813 23ZM194.813 23C194.765 23 194.725 22.992 194.693 22.976C194.661 22.952 194.637 22.924 194.621 22.892C194.605 22.852 194.593 22.804 194.585 22.748C194.577 22.692 194.573 22.632 194.573 22.568C194.573 22.48 194.581 22.408 194.597 22.352C194.605 22.288 194.629 22.24 194.669 22.208C194.701 22.168 194.749 22.148 194.813 22.148V23ZM197.813 23V22.148H199.421C199.901 22.148 200.361 22.072 200.801 21.92C201.241 21.76 201.645 21.552 202.013 21.296C202.381 21.032 202.701 20.744 202.973 20.432C203.245 20.112 203.457 19.788 203.609 19.46C203.761 19.132 203.837 18.824 203.837 18.536V17.816L204.341 18.572C203.877 18.332 203.421 18.152 202.973 18.032C202.525 17.912 202.089 17.852 201.665 17.852C201.241 17.852 200.805 17.912 200.357 18.032C199.909 18.152 199.457 18.332 199.001 18.572L199.505 17.816V18.536C199.505 18.824 199.581 19.132 199.733 19.46C199.885 19.788 200.093 20.112 200.357 20.432C200.629 20.744 200.949 21.032 201.317 21.296C201.685 21.552 202.089 21.76 202.529 21.92C202.969 22.072 203.429 22.148 203.909 22.148H205.445V23H203.909C203.285 23 202.701 22.9 202.157 22.7C201.613 22.5 201.121 22.236 200.681 21.908C200.241 21.572 199.861 21.208 199.541 20.816C199.229 20.416 198.989 20.02 198.821 19.628C198.653 19.228 198.569 18.864 198.569 18.536V17.816C198.913 17.632 199.261 17.48 199.613 17.36C199.965 17.24 200.313 17.152 200.657 17.096C201.009 17.032 201.345 17 201.665 17C201.993 17 202.329 17.032 202.673 17.096C203.017 17.152 203.365 17.24 203.717 17.36C204.069 17.48 204.417 17.632 204.761 17.816V18.536C204.761 18.864 204.677 19.228 204.509 19.628C204.341 20.02 204.097 20.416 203.777 20.816C203.465 21.208 203.089 21.572 202.649 21.908C202.209 22.236 201.717 22.5 201.173 22.7C200.629 22.9 200.045 23 199.421 23H197.813ZM197.813 23C197.765 23 197.725 22.992 197.693 22.976C197.661 22.952 197.637 22.924 197.621 22.892C197.605 22.852 197.593 22.804 197.585 22.748C197.577 22.692 197.573 22.632 197.573 22.568C197.573 22.48 197.581 22.408 197.597 22.352C197.605 22.288 197.629 22.24 197.669 22.208C197.701 22.168 197.749 22.148 197.813 22.148V23ZM205.445 23V22.148C205.493 22.148 205.533 22.16 205.565 22.184C205.597 22.2 205.621 22.228 205.637 22.268C205.653 22.3 205.665 22.344 205.673 22.4C205.681 22.448 205.685 22.504 205.685 22.568C205.685 22.632 205.681 22.692 205.673 22.748C205.665 22.804 205.653 22.852 205.637 22.892C205.621 22.924 205.597 22.952 205.565 22.976C205.533 22.992 205.493 23 205.445 23ZM205.442 23V22.148H208.442V23H205.442ZM208.442 23V22.148C208.49 22.148 208.53 22.16 208.562 22.184C208.594 22.2 208.618 22.228 208.634 22.268C208.65 22.3 208.662 22.344 208.67 22.4C208.678 22.448 208.682 22.504 208.682 22.568C208.682 22.632 208.678 22.692 208.67 22.748C208.662 22.804 208.65 22.852 208.634 22.892C208.618 22.924 208.594 22.952 208.562 22.976C208.53 22.992 208.49 23 208.442 23ZM205.442 23C205.394 23 205.354 22.992 205.322 22.976C205.29 22.952 205.266 22.924 205.25 22.892C205.234 22.852 205.222 22.804 205.214 22.748C205.206 22.692 205.202 22.632 205.202 22.568C205.202 22.48 205.21 22.408 205.226 22.352C205.234 22.288 205.258 22.24 205.298 22.208C205.33 22.168 205.378 22.148 205.442 22.148V23ZM217.466 23V22.148H218.762V23H217.466ZM208.442 23C208.394 23 208.354 22.992 208.322 22.976C208.29 22.952 208.266 22.924 208.25 22.892C208.234 22.852 208.222 22.804 208.214 22.748C208.206 22.692 208.202 22.632 208.202 22.568C208.202 22.48 208.21 22.408 208.226 22.352C208.234 22.288 208.258 22.24 208.298 22.208C208.33 22.168 208.378 22.148 208.442 22.148V23ZM214.754 23C214.482 23 214.214 22.948 213.95 22.844C213.694 22.74 213.446 22.576 213.206 22.352L213.818 21.716C214.002 21.868 214.166 21.98 214.31 22.052C214.454 22.116 214.602 22.148 214.754 22.148H216.89L216.53 22.532V19.664C216.53 19.52 216.514 19.316 216.482 19.052C216.458 18.788 216.418 18.492 216.362 18.164C216.314 17.828 216.254 17.492 216.182 17.156L217.094 17C217.15 17.28 217.206 17.592 217.262 17.936C217.318 18.28 217.366 18.608 217.406 18.92C217.446 19.224 217.466 19.472 217.466 19.664V23H214.754ZM208.442 23V22.148H210.194L209.954 22.388V18.2H210.878V23H208.442ZM210.878 23V22.148H212.234C212.506 22.148 212.71 22.108 212.846 22.028C212.99 21.948 213.09 21.788 213.146 21.548C213.202 21.308 213.23 20.956 213.23 20.492V17.6H214.166V20.492C214.166 21.116 214.098 21.612 213.962 21.98C213.834 22.348 213.63 22.612 213.35 22.772C213.07 22.924 212.698 23 212.234 23H210.878ZM218.762 23V22.148C218.81 22.148 218.85 22.16 218.882 22.184C218.914 22.2 218.938 22.228 218.954 22.268C218.97 22.3 218.982 22.344 218.99 22.4C218.998 22.448 219.002 22.504 219.002 22.568C219.002 22.632 218.998 22.692 218.99 22.748C218.982 22.804 218.97 22.852 218.954 22.892C218.938 22.924 218.914 22.952 218.882 22.976C218.85 22.992 218.81 23 218.762 23ZM218.766 23V22.148H221.766V23H218.766ZM221.766 23V22.148C221.814 22.148 221.854 22.16 221.886 22.184C221.918 22.2 221.942 22.228 221.958 22.268C221.974 22.3 221.986 22.344 221.994 22.4C222.002 22.448 222.006 22.504 222.006 22.568C222.006 22.632 222.002 22.692 221.994 22.748C221.986 22.804 221.974 22.852 221.958 22.892C221.942 22.924 221.918 22.952 221.886 22.976C221.854 22.992 221.814 23 221.766 23ZM218.766 23C218.718 23 218.678 22.992 218.646 22.976C218.614 22.952 218.59 22.924 218.574 22.892C218.558 22.852 218.546 22.804 218.538 22.748C218.53 22.692 218.526 22.632 218.526 22.568C218.526 22.48 218.534 22.408 218.55 22.352C218.558 22.288 218.582 22.24 218.622 22.208C218.654 22.168 218.702 22.148 218.766 22.148V23ZM223.218 23V14.396H224.154V23H223.218ZM221.766 23V22.148H223.218V23H221.766ZM221.766 23C221.718 23 221.678 22.992 221.646 22.976C221.614 22.952 221.59 22.924 221.574 22.892C221.558 22.852 221.546 22.804 221.538 22.748C221.53 22.692 221.526 22.632 221.526 22.568C221.526 22.48 221.534 22.408 221.55 22.352C221.558 22.288 221.582 22.24 221.622 22.208C221.654 22.168 221.702 22.148 221.766 22.148V23ZM226.223 23V14.396H227.147V23H226.223ZM232.994 23V22.148H234.53V23H232.994ZM231.038 25.652C230.934 25.652 230.826 25.644 230.714 25.628C230.594 25.62 230.478 25.612 230.366 25.604L230.474 24.752C230.586 24.76 230.69 24.768 230.786 24.776C230.882 24.792 230.966 24.8 231.038 24.8C231.414 24.8 231.718 24.656 231.95 24.368C232.182 24.088 232.298 23.696 232.298 23.192V17H233.234V23.192C233.234 23.68 233.138 24.108 232.946 24.476C232.762 24.852 232.506 25.14 232.178 25.34C231.85 25.548 231.47 25.652 231.038 25.652ZM234.53 23V22.148C234.578 22.148 234.618 22.16 234.65 22.184C234.682 22.2 234.706 22.228 234.722 22.268C234.738 22.3 234.75 22.344 234.758 22.4C234.766 22.448 234.77 22.504 234.77 22.568C234.77 22.632 234.766 22.692 234.758 22.748C234.75 22.804 234.738 22.852 234.722 22.892C234.706 22.924 234.682 22.952 234.65 22.976C234.618 22.992 234.578 23 234.53 23ZM232.298 15.92V14.84H233.234V15.92H232.298ZM234.528 23V22.148H240.528L240.192 22.448V20.312C240.192 19.88 240.132 19.524 240.012 19.244C239.9 18.956 239.728 18.744 239.496 18.608C239.272 18.464 238.988 18.392 238.644 18.392H236.028L235.344 17.36L235.86 16.364C235.956 16.188 236.056 16.008 236.16 15.824C236.264 15.64 236.392 15.428 236.544 15.188C236.696 14.948 236.888 14.656 237.12 14.312L237.9 14.78C237.668 15.132 237.48 15.424 237.336 15.656C237.192 15.888 237.068 16.088 236.964 16.256C236.868 16.424 236.776 16.592 236.688 16.76L236.088 17.912L235.848 17.54H238.644C239.148 17.54 239.56 17.628 239.88 17.804C240.208 17.972 240.46 18.196 240.636 18.476C240.82 18.756 240.948 19.06 241.02 19.388C241.092 19.708 241.128 20.016 241.128 20.312V23H234.528ZM234.528 23C234.48 23 234.44 22.992 234.408 22.976C234.376 22.952 234.352 22.924 234.336 22.892C234.32 22.852 234.308 22.804 234.3 22.748C234.292 22.692 234.288 22.632 234.288 22.568C234.288 22.48 234.296 22.408 234.312 22.352C234.32 22.288 234.344 22.24 234.384 22.208C234.416 22.168 234.464 22.148 234.528 22.148V23ZM244.092 23V22.148H245.628V23H244.092ZM242.136 25.652C242.032 25.652 241.924 25.644 241.812 25.628C241.692 25.62 241.576 25.612 241.464 25.604L241.572 24.752C241.684 24.76 241.788 24.768 241.884 24.776C241.98 24.792 242.064 24.8 242.136 24.8C242.512 24.8 242.816 24.656 243.048 24.368C243.28 24.088 243.396 23.696 243.396 23.192V17H244.332V23.192C244.332 23.68 244.236 24.108 244.044 24.476C243.86 24.852 243.604 25.14 243.276 25.34C242.948 25.548 242.568 25.652 242.136 25.652ZM245.628 23V22.148C245.676 22.148 245.716 22.16 245.748 22.184C245.78 22.2 245.804 22.228 245.82 22.268C245.836 22.3 245.848 22.344 245.856 22.4C245.864 22.448 245.868 22.504 245.868 22.568C245.868 22.632 245.864 22.692 245.856 22.748C245.848 22.804 245.836 22.852 245.82 22.892C245.804 22.924 245.78 22.952 245.748 22.976C245.716 22.992 245.676 23 245.628 23ZM245.625 23V22.148H248.625V23H245.625ZM248.625 23V22.148C248.673 22.148 248.713 22.16 248.745 22.184C248.777 22.2 248.801 22.228 248.817 22.268C248.833 22.3 248.845 22.344 248.853 22.4C248.861 22.448 248.865 22.504 248.865 22.568C248.865 22.632 248.861 22.692 248.853 22.748C248.845 22.804 248.833 22.852 248.817 22.892C248.801 22.924 248.777 22.952 248.745 22.976C248.713 22.992 248.673 23 248.625 23ZM245.625 23C245.577 23 245.537 22.992 245.505 22.976C245.473 22.952 245.449 22.924 245.433 22.892C245.417 22.852 245.405 22.804 245.397 22.748C245.389 22.692 245.385 22.632 245.385 22.568C245.385 22.48 245.393 22.408 245.409 22.352C245.417 22.288 245.441 22.24 245.481 22.208C245.513 22.168 245.561 22.148 245.625 22.148V23ZM255.429 23V22.148H256.725V23H255.429ZM248.625 23C248.577 23 248.537 22.992 248.505 22.976C248.473 22.952 248.449 22.924 248.433 22.892C248.417 22.852 248.405 22.804 248.397 22.748C248.389 22.692 248.385 22.632 248.385 22.568C248.385 22.48 248.393 22.408 248.409 22.352C248.417 22.288 248.441 22.24 248.481 22.208C248.513 22.168 248.561 22.148 248.625 22.148V23ZM248.625 23V22.148H255.189L254.493 22.64V20.06C254.493 19.5 254.429 19.06 254.301 18.74C254.173 18.42 253.953 18.192 253.641 18.056C253.337 17.92 252.921 17.852 252.393 17.852C252.057 17.852 251.721 17.876 251.385 17.924C251.057 17.972 250.801 18.036 250.617 18.116L251.181 17.54C251.133 17.732 251.085 17.976 251.037 18.272C250.989 18.56 250.949 18.872 250.917 19.208C250.885 19.544 250.869 19.88 250.869 20.216C250.869 20.56 250.885 20.896 250.917 21.224C250.949 21.552 250.985 21.836 251.025 22.076C251.065 22.316 251.097 22.484 251.121 22.58L250.233 22.832C250.201 22.728 250.161 22.548 250.113 22.292C250.073 22.036 250.033 21.728 249.993 21.368C249.961 21.008 249.945 20.624 249.945 20.216C249.945 19.824 249.961 19.444 249.993 19.076C250.033 18.7 250.077 18.36 250.125 18.056C250.181 17.752 250.233 17.508 250.281 17.324C250.457 17.252 250.737 17.18 251.121 17.108C251.505 17.036 251.929 17 252.393 17C253.065 17 253.625 17.1 254.073 17.3C254.529 17.5 254.869 17.824 255.093 18.272C255.317 18.712 255.429 19.308 255.429 20.06V23H248.625ZM256.725 23V22.148C256.773 22.148 256.813 22.16 256.845 22.184C256.877 22.2 256.901 22.228 256.917 22.268C256.933 22.3 256.945 22.344 256.953 22.4C256.961 22.448 256.965 22.504 256.965 22.568C256.965 22.632 256.961 22.692 256.953 22.748C256.945 22.804 256.933 22.852 256.917 22.892C256.901 22.924 256.877 22.952 256.845 22.976C256.813 22.992 256.773 23 256.725 23ZM256.723 23V22.148H259.723V23H256.723ZM259.723 23V22.148C259.771 22.148 259.811 22.16 259.843 22.184C259.875 22.2 259.899 22.228 259.915 22.268C259.931 22.3 259.943 22.344 259.951 22.4C259.959 22.448 259.963 22.504 259.963 22.568C259.963 22.632 259.959 22.692 259.951 22.748C259.943 22.804 259.931 22.852 259.915 22.892C259.899 22.924 259.875 22.952 259.843 22.976C259.811 22.992 259.771 23 259.723 23ZM256.723 23C256.675 23 256.635 22.992 256.603 22.976C256.571 22.952 256.547 22.924 256.531 22.892C256.515 22.852 256.503 22.804 256.495 22.748C256.487 22.692 256.483 22.632 256.483 22.568C256.483 22.48 256.491 22.408 256.507 22.352C256.515 22.288 256.539 22.24 256.579 22.208C256.611 22.168 256.659 22.148 256.723 22.148V23ZM261.175 23V14.396H262.111V23H261.175ZM259.723 23V22.148H261.175V23H259.723ZM259.723 23C259.675 23 259.635 22.992 259.603 22.976C259.571 22.952 259.547 22.924 259.531 22.892C259.515 22.852 259.503 22.804 259.495 22.748C259.487 22.692 259.483 22.632 259.483 22.568C259.483 22.48 259.491 22.408 259.507 22.352C259.515 22.288 259.539 22.24 259.579 22.208C259.611 22.168 259.659 22.148 259.723 22.148V23ZM264.18 23V14.396H265.104V23H264.18Z" fill="black"/>
<path d="M45.4377 23C44.7417 23 44.1977 22.896 43.8057 22.688C43.4217 22.472 43.1497 22.144 42.9897 21.704C42.8377 21.256 42.7617 20.688 42.7617 20C42.7617 19.312 42.8377 18.748 42.9897 18.308C43.1497 17.86 43.4217 17.532 43.8057 17.324C44.1977 17.108 44.7417 17 45.4377 17H47.9217V22.52H46.9857V17.444L47.4657 17.852H45.4377C44.9737 17.852 44.6137 17.908 44.3577 18.02C44.1097 18.132 43.9377 18.344 43.8417 18.656C43.7457 18.96 43.6977 19.408 43.6977 20C43.6977 20.592 43.7457 21.044 43.8417 21.356C43.9377 21.66 44.1097 21.868 44.3577 21.98C44.6137 22.092 44.9737 22.148 45.4377 22.148H49.2177V23H45.4377ZM49.2177 23V22.148C49.2657 22.148 49.3057 22.16 49.3377 22.184C49.3697 22.2 49.3937 22.228 49.4097 22.268C49.4257 22.3 49.4377 22.344 49.4457 22.4C49.4537 22.448 49.4577 22.504 49.4577 22.568C49.4577 22.632 49.4537 22.692 49.4457 22.748C49.4377 22.804 49.4257 22.852 49.4097 22.892C49.3937 22.924 49.3697 22.952 49.3377 22.976C49.3057 22.992 49.2657 23 49.2177 23ZM44.2737 15.92V14.84H45.2097V15.92H44.2737ZM45.9177 15.92V14.84H46.8537V15.92H45.9177ZM49.2192 23V22.148H52.2192V23H49.2192ZM52.2192 23V22.148C52.2672 22.148 52.3072 22.16 52.3392 22.184C52.3712 22.2 52.3952 22.228 52.4112 22.268C52.4272 22.3 52.4392 22.344 52.4472 22.4C52.4552 22.448 52.4592 22.504 52.4592 22.568C52.4592 22.632 52.4552 22.692 52.4472 22.748C52.4392 22.804 52.4272 22.852 52.4112 22.892C52.3952 22.924 52.3712 22.952 52.3392 22.976C52.3072 22.992 52.2672 23 52.2192 23ZM49.2192 23C49.1712 23 49.1312 22.992 49.0992 22.976C49.0672 22.952 49.0432 22.924 49.0272 22.892C49.0112 22.852 48.9992 22.804 48.9912 22.748C48.9832 22.692 48.9792 22.632 48.9792 22.568C48.9792 22.48 48.9872 22.408 49.0032 22.352C49.0112 22.288 49.0352 22.24 49.0752 22.208C49.1072 22.168 49.1552 22.148 49.2192 22.148V23ZM54.4512 23V22.148H55.7472V23H54.4512ZM55.7472 23V22.148C55.7952 22.148 55.8352 22.16 55.8672 22.184C55.8992 22.2 55.9232 22.228 55.9392 22.268C55.9552 22.3 55.9672 22.344 55.9752 22.4C55.9832 22.448 55.9872 22.504 55.9872 22.568C55.9872 22.632 55.9832 22.692 55.9752 22.748C55.9672 22.804 55.9552 22.852 55.9392 22.892C55.9232 22.924 55.8992 22.952 55.8672 22.976C55.8352 22.992 55.7952 23 55.7472 23ZM52.2192 23C52.1712 23 52.1312 22.992 52.0992 22.976C52.0672 22.952 52.0432 22.924 52.0272 22.892C52.0112 22.852 51.9992 22.804 51.9912 22.748C51.9832 22.692 51.9792 22.632 51.9792 22.568C51.9792 22.48 51.9872 22.408 52.0032 22.352C52.0112 22.288 52.0352 22.24 52.0752 22.208C52.1072 22.168 52.1552 22.148 52.2192 22.148V23ZM52.2192 23V22.148H53.9472L53.5152 22.496V17H54.4512V23H52.2192ZM52.6992 25.16V24.08H53.6352V25.16H52.6992ZM54.3432 25.16V24.08H55.2792V25.16H54.3432ZM61.6866 23V22.148H62.9826V23H61.6866ZM55.7466 23C55.6986 23 55.6586 22.992 55.6266 22.976C55.5946 22.952 55.5706 22.924 55.5546 22.892C55.5386 22.852 55.5266 22.804 55.5186 22.748C55.5106 22.692 55.5066 22.632 55.5066 22.568C55.5066 22.48 55.5146 22.408 55.5306 22.352C55.5386 22.288 55.5626 22.24 55.6026 22.208C55.6346 22.168 55.6826 22.148 55.7466 22.148V23ZM55.7466 23V22.148H61.0386L60.7506 22.4V19.424C60.7506 18.904 60.5866 18.516 60.2586 18.26C59.9386 17.996 59.4466 17.864 58.7826 17.864C58.5746 17.864 58.2746 17.884 57.8826 17.924C57.4906 17.956 57.0786 18.004 56.6466 18.068L56.5386 17.3C56.8666 17.22 57.2266 17.152 57.6186 17.096C58.0106 17.032 58.3906 17 58.7586 17C59.3666 17 59.8866 17.096 60.3186 17.288C60.7586 17.472 61.0946 17.744 61.3266 18.104C61.5666 18.464 61.6866 18.904 61.6866 19.424V23H55.7466ZM62.9826 23V22.148C63.0306 22.148 63.0706 22.16 63.1026 22.184C63.1346 22.2 63.1586 22.228 63.1746 22.268C63.1906 22.3 63.2026 22.344 63.2106 22.4C63.2186 22.448 63.2226 22.504 63.2226 22.568C63.2226 22.632 63.2186 22.692 63.2106 22.748C63.2026 22.804 63.1906 22.852 63.1746 22.892C63.1586 22.924 63.1346 22.952 63.1026 22.976C63.0706 22.992 63.0306 23 62.9826 23ZM58.2906 25.16V24.08H59.2266V25.16H58.2906ZM62.9771 23V22.148H65.9771V23H62.9771ZM65.9771 23V22.148C66.0251 22.148 66.0651 22.16 66.0971 22.184C66.1291 22.2 66.1531 22.228 66.1691 22.268C66.1851 22.3 66.1971 22.344 66.2051 22.4C66.2131 22.448 66.2171 22.504 66.2171 22.568C66.2171 22.632 66.2131 22.692 66.2051 22.748C66.1971 22.804 66.1851 22.852 66.1691 22.892C66.1531 22.924 66.1291 22.952 66.0971 22.976C66.0651 22.992 66.0251 23 65.9771 23ZM62.9771 23C62.9291 23 62.8891 22.992 62.8571 22.976C62.8251 22.952 62.8011 22.924 62.7851 22.892C62.7691 22.852 62.7571 22.804 62.7491 22.748C62.7411 22.692 62.7371 22.632 62.7371 22.568C62.7371 22.48 62.7451 22.408 62.7611 22.352C62.7691 22.288 62.7931 22.24 62.8331 22.208C62.8651 22.168 62.9131 22.148 62.9771 22.148V23ZM65.9771 23V22.148H67.7051L67.2731 22.496V17H68.2091V23H65.9771ZM65.9771 23C65.9291 23 65.8891 22.992 65.8571 22.976C65.8251 22.952 65.8011 22.924 65.7851 22.892C65.7691 22.852 65.7571 22.804 65.7491 22.748C65.7411 22.692 65.7371 22.632 65.7371 22.568C65.7371 22.48 65.7451 22.408 65.7611 22.352C65.7691 22.288 65.7931 22.24 65.8331 22.208C65.8651 22.168 65.9131 22.148 65.9771 22.148V23ZM66.4571 15.92V14.84H67.3931V15.92H66.4571ZM68.1011 15.92V14.84H69.0371V15.92H68.1011ZM70.3283 23V14.396H71.2523V23H70.3283ZM74.4629 23V22.148H75.9989V23H74.4629ZM72.5069 25.652C72.4029 25.652 72.2949 25.644 72.1829 25.628C72.0629 25.62 71.9469 25.612 71.8349 25.604L71.9429 24.752C72.0549 24.76 72.1589 24.768 72.2549 24.776C72.3509 24.792 72.4349 24.8 72.5069 24.8C72.8829 24.8 73.1869 24.656 73.4189 24.368C73.6509 24.088 73.7669 23.696 73.7669 23.192V17H74.7029V23.192C74.7029 23.68 74.6069 24.108 74.4149 24.476C74.2309 24.852 73.9749 25.14 73.6469 25.34C73.3189 25.548 72.9389 25.652 72.5069 25.652ZM75.9989 23V22.148C76.0469 22.148 76.0869 22.16 76.1189 22.184C76.1509 22.2 76.1749 22.228 76.1909 22.268C76.2069 22.3 76.2189 22.344 76.2269 22.4C76.2349 22.448 76.2389 22.504 76.2389 22.568C76.2389 22.632 76.2349 22.692 76.2269 22.748C76.2189 22.804 76.2069 22.852 76.1909 22.892C76.1749 22.924 76.1509 22.952 76.1189 22.976C76.0869 22.992 76.0469 23 75.9989 23ZM75.9966 23V22.148H78.9966V23H75.9966ZM78.9966 23V22.148C79.0446 22.148 79.0846 22.16 79.1166 22.184C79.1486 22.2 79.1726 22.228 79.1886 22.268C79.2046 22.3 79.2166 22.344 79.2246 22.4C79.2326 22.448 79.2366 22.504 79.2366 22.568C79.2366 22.632 79.2326 22.692 79.2246 22.748C79.2166 22.804 79.2046 22.852 79.1886 22.892C79.1726 22.924 79.1486 22.952 79.1166 22.976C79.0846 22.992 79.0446 23 78.9966 23ZM75.9966 23C75.9486 23 75.9086 22.992 75.8766 22.976C75.8446 22.952 75.8206 22.924 75.8046 22.892C75.7886 22.852 75.7766 22.804 75.7686 22.748C75.7606 22.692 75.7566 22.632 75.7566 22.568C75.7566 22.48 75.7646 22.408 75.7806 22.352C75.7886 22.288 75.8126 22.24 75.8526 22.208C75.8846 22.168 75.9326 22.148 75.9966 22.148V23ZM81.2286 23V22.148H82.5246V23H81.2286ZM82.5246 23V22.148C82.5726 22.148 82.6126 22.16 82.6446 22.184C82.6766 22.2 82.7006 22.228 82.7166 22.268C82.7326 22.3 82.7446 22.344 82.7526 22.4C82.7606 22.448 82.7646 22.504 82.7646 22.568C82.7646 22.632 82.7606 22.692 82.7526 22.748C82.7446 22.804 82.7326 22.852 82.7166 22.892C82.7006 22.924 82.6766 22.952 82.6446 22.976C82.6126 22.992 82.5726 23 82.5246 23ZM78.9966 23C78.9486 23 78.9086 22.992 78.8766 22.976C78.8446 22.952 78.8206 22.924 78.8046 22.892C78.7886 22.852 78.7766 22.804 78.7686 22.748C78.7606 22.692 78.7566 22.632 78.7566 22.568C78.7566 22.48 78.7646 22.408 78.7806 22.352C78.7886 22.288 78.8126 22.24 78.8526 22.208C78.8846 22.168 78.9326 22.148 78.9966 22.148V23ZM78.9966 23V22.148H80.7246L80.2926 22.496V17H81.2286V23H78.9966ZM79.4766 15.92V14.84H80.4126V15.92H79.4766ZM81.1206 15.92V14.84H82.0566V15.92H81.1206ZM82.5239 23V22.148H85.5239V23H82.5239ZM85.5239 23V22.148C85.5719 22.148 85.6119 22.16 85.6439 22.184C85.6759 22.2 85.6999 22.228 85.7159 22.268C85.7319 22.3 85.7439 22.344 85.7519 22.4C85.7599 22.448 85.7639 22.504 85.7639 22.568C85.7639 22.632 85.7599 22.692 85.7519 22.748C85.7439 22.804 85.7319 22.852 85.7159 22.892C85.6999 22.924 85.6759 22.952 85.6439 22.976C85.6119 22.992 85.5719 23 85.5239 23ZM82.5239 23C82.4759 23 82.4359 22.992 82.4039 22.976C82.3719 22.952 82.3479 22.924 82.3319 22.892C82.3159 22.852 82.3039 22.804 82.2959 22.748C82.2879 22.692 82.2839 22.632 82.2839 22.568C82.2839 22.48 82.2919 22.408 82.3079 22.352C82.3159 22.288 82.3399 22.24 82.3799 22.208C82.4119 22.168 82.4599 22.148 82.5239 22.148V23ZM91.8359 23C91.5639 23 91.2959 22.948 91.0319 22.844C90.7759 22.74 90.5279 22.576 90.2879 22.352L90.8999 21.716C91.0839 21.868 91.2479 21.98 91.3919 22.052C91.5359 22.116 91.6839 22.148 91.8359 22.148H93.9719L93.6119 22.532V19.664C93.6119 19.52 93.5959 19.316 93.5639 19.052C93.5399 18.788 93.4999 18.492 93.4439 18.164C93.3959 17.828 93.3359 17.492 93.2639 17.156L94.1759 17C94.2319 17.28 94.2879 17.592 94.3439 17.936C94.3999 18.28 94.4479 18.608 94.4879 18.92C94.5279 19.224 94.5479 19.472 94.5479 19.664V23H91.8359ZM85.5239 23V22.148H87.2759L87.0359 22.388V18.2H87.9599V23H85.5239ZM87.9599 23V22.148H89.3159C89.5879 22.148 89.7919 22.108 89.9279 22.028C90.0719 21.948 90.1719 21.788 90.2279 21.548C90.2839 21.308 90.3119 20.956 90.3119 20.492V17.6H91.2479V20.492C91.2479 21.116 91.1799 21.612 91.0439 21.98C90.9159 22.348 90.7119 22.612 90.4319 22.772C90.1519 22.924 89.7799 23 89.3159 23H87.9599ZM85.5239 23C85.4759 23 85.4359 22.992 85.4039 22.976C85.3719 22.952 85.3479 22.924 85.3319 22.892C85.3159 22.852 85.3039 22.804 85.2959 22.748C85.2879 22.692 85.2839 22.632 85.2839 22.568C85.2839 22.48 85.2919 22.408 85.3079 22.352C85.3159 22.288 85.3399 22.24 85.3799 22.208C85.4119 22.168 85.4599 22.148 85.5239 22.148V23ZM95.9297 23V22.148H101.798L101.27 22.688V14.396H102.206V23H95.9297ZM97.8497 22.148V16.1H98.7737V22.148H97.8497ZM104.324 23V14.396H105.248V23H104.324ZM113.076 23C112.284 23 111.624 22.908 111.096 22.724C110.568 22.54 110.172 22.26 109.908 21.884C109.644 21.508 109.512 21.028 109.512 20.444C109.512 20.252 109.524 20.044 109.548 19.82C109.58 19.596 109.616 19.38 109.656 19.172C109.696 18.956 109.732 18.772 109.764 18.62C109.796 18.46 109.816 18.352 109.824 18.296L110.736 18.464C110.712 18.592 110.676 18.768 110.628 18.992C110.588 19.216 110.548 19.456 110.508 19.712C110.468 19.968 110.448 20.212 110.448 20.444C110.448 20.74 110.492 20.996 110.58 21.212C110.676 21.428 110.824 21.608 111.024 21.752C111.232 21.888 111.504 21.988 111.84 22.052C112.176 22.116 112.588 22.148 113.076 22.148H116.604V17H117.54V23H113.076ZM112.248 17.084V16.004H113.184V17.084H112.248ZM113.892 17.084V16.004H114.828V17.084H113.892ZM120.588 23V22.148H122.052V23H120.588ZM119.664 23V14.396H120.588V23H119.664ZM122.052 23V22.148C122.1 22.148 122.14 22.16 122.172 22.184C122.204 22.2 122.228 22.228 122.244 22.268C122.26 22.3 122.272 22.344 122.28 22.4C122.288 22.448 122.292 22.504 122.292 22.568C122.292 22.632 122.288 22.692 122.28 22.748C122.272 22.804 122.26 22.852 122.244 22.892C122.228 22.924 122.204 22.952 122.172 22.976C122.14 22.992 122.1 23 122.052 23ZM122.051 23V22.148H125.051V23H122.051ZM125.051 23V22.148C125.099 22.148 125.139 22.16 125.171 22.184C125.203 22.2 125.227 22.228 125.243 22.268C125.259 22.3 125.271 22.344 125.279 22.4C125.287 22.448 125.291 22.504 125.291 22.568C125.291 22.632 125.287 22.692 125.279 22.748C125.271 22.804 125.259 22.852 125.243 22.892C125.227 22.924 125.203 22.952 125.171 22.976C125.139 22.992 125.099 23 125.051 23ZM122.051 23C122.003 23 121.963 22.992 121.931 22.976C121.899 22.952 121.875 22.924 121.859 22.892C121.843 22.852 121.831 22.804 121.823 22.748C121.815 22.692 121.811 22.632 121.811 22.568C121.811 22.48 121.819 22.408 121.835 22.352C121.843 22.288 121.867 22.24 121.907 22.208C121.939 22.168 121.987 22.148 122.051 22.148V23ZM125.051 23V22.148H131.051L130.715 22.448V20.312C130.715 19.88 130.655 19.524 130.535 19.244C130.423 18.956 130.251 18.744 130.019 18.608C129.795 18.464 129.511 18.392 129.167 18.392H126.551L125.867 17.36L126.383 16.364C126.479 16.188 126.579 16.008 126.683 15.824C126.787 15.64 126.915 15.428 127.067 15.188C127.219 14.948 127.411 14.656 127.643 14.312L128.423 14.78C128.191 15.132 128.003 15.424 127.859 15.656C127.715 15.888 127.591 16.088 127.487 16.256C127.391 16.424 127.299 16.592 127.211 16.76L126.611 17.912L126.371 17.54H129.167C129.671 17.54 130.083 17.628 130.403 17.804C130.731 17.972 130.983 18.196 131.159 18.476C131.343 18.756 131.471 19.06 131.543 19.388C131.615 19.708 131.651 20.016 131.651 20.312V23H125.051ZM125.051 23C125.003 23 124.963 22.992 124.931 22.976C124.899 22.952 124.875 22.924 124.859 22.892C124.843 22.852 124.831 22.804 124.823 22.748C124.815 22.692 124.811 22.632 124.811 22.568C124.811 22.48 124.819 22.408 124.835 22.352C124.843 22.288 124.867 22.24 124.907 22.208C124.939 22.168 124.987 22.148 125.051 22.148V23ZM133.703 23V14.396H134.627V23H133.703ZM137.838 23V22.148H139.374V23H137.838ZM135.882 25.652C135.778 25.652 135.67 25.644 135.558 25.628C135.438 25.62 135.322 25.612 135.21 25.604L135.318 24.752C135.43 24.76 135.534 24.768 135.63 24.776C135.726 24.792 135.81 24.8 135.882 24.8C136.258 24.8 136.562 24.656 136.794 24.368C137.026 24.088 137.142 23.696 137.142 23.192V17H138.078V23.192C138.078 23.68 137.982 24.108 137.79 24.476C137.606 24.852 137.35 25.14 137.022 25.34C136.694 25.548 136.314 25.652 135.882 25.652ZM139.374 23V22.148C139.422 22.148 139.462 22.16 139.494 22.184C139.526 22.2 139.55 22.228 139.566 22.268C139.582 22.3 139.594 22.344 139.602 22.4C139.61 22.448 139.614 22.504 139.614 22.568C139.614 22.632 139.61 22.692 139.602 22.748C139.594 22.804 139.582 22.852 139.566 22.892C139.55 22.924 139.526 22.952 139.494 22.976C139.462 22.992 139.422 23 139.374 23ZM139.372 23V22.148H142.372V23H139.372ZM142.372 23V22.148C142.42 22.148 142.46 22.16 142.492 22.184C142.524 22.2 142.548 22.228 142.564 22.268C142.58 22.3 142.592 22.344 142.6 22.4C142.608 22.448 142.612 22.504 142.612 22.568C142.612 22.632 142.608 22.692 142.6 22.748C142.592 22.804 142.58 22.852 142.564 22.892C142.548 22.924 142.524 22.952 142.492 22.976C142.46 22.992 142.42 23 142.372 23ZM139.372 23C139.324 23 139.284 22.992 139.252 22.976C139.22 22.952 139.196 22.924 139.18 22.892C139.164 22.852 139.152 22.804 139.144 22.748C139.136 22.692 139.132 22.632 139.132 22.568C139.132 22.48 139.14 22.408 139.156 22.352C139.164 22.288 139.188 22.24 139.228 22.208C139.26 22.168 139.308 22.148 139.372 22.148V23ZM151.396 23V22.148H152.692V23H151.396ZM142.372 23C142.324 23 142.284 22.992 142.252 22.976C142.22 22.952 142.196 22.924 142.18 22.892C142.164 22.852 142.152 22.804 142.144 22.748C142.136 22.692 142.132 22.632 142.132 22.568C142.132 22.48 142.14 22.408 142.156 22.352C142.164 22.288 142.188 22.24 142.228 22.208C142.26 22.168 142.308 22.148 142.372 22.148V23ZM148.684 23C148.412 23 148.144 22.948 147.88 22.844C147.624 22.74 147.376 22.576 147.136 22.352L147.748 21.716C147.932 21.868 148.096 21.98 148.24 22.052C148.384 22.116 148.532 22.148 148.684 22.148H150.82L150.46 22.532V19.664C150.46 19.52 150.444 19.316 150.412 19.052C150.388 18.788 150.348 18.492 150.292 18.164C150.244 17.828 150.184 17.492 150.112 17.156L151.024 17C151.08 17.28 151.136 17.592 151.192 17.936C151.248 18.28 151.296 18.608 151.336 18.92C151.376 19.224 151.396 19.472 151.396 19.664V23H148.684ZM142.372 23V22.148H144.124L143.884 22.388V18.2H144.808V23H142.372ZM144.808 23V22.148H146.164C146.436 22.148 146.64 22.108 146.776 22.028C146.92 21.948 147.02 21.788 147.076 21.548C147.132 21.308 147.16 20.956 147.16 20.492V17.6H148.096V20.492C148.096 21.116 148.028 21.612 147.892 21.98C147.764 22.348 147.56 22.612 147.28 22.772C147 22.924 146.628 23 146.164 23H144.808ZM152.692 23V22.148C152.74 22.148 152.78 22.16 152.812 22.184C152.844 22.2 152.868 22.228 152.884 22.268C152.9 22.3 152.912 22.344 152.92 22.4C152.928 22.448 152.932 22.504 152.932 22.568C152.932 22.632 152.928 22.692 152.92 22.748C152.912 22.804 152.9 22.852 152.884 22.892C152.868 22.924 152.844 22.952 152.812 22.976C152.78 22.992 152.74 23 152.692 23ZM147.196 14.336V13.316H148.06V14.336H147.196ZM146.332 15.92V14.84H147.268V15.92H146.332ZM147.976 15.92V14.84H148.912V15.92H147.976ZM155.084 23V22.148H156.38V23H155.084ZM152.696 23C152.648 23 152.608 22.992 152.576 22.976C152.544 22.952 152.52 22.924 152.504 22.892C152.488 22.852 152.476 22.804 152.468 22.748C152.46 22.692 152.456 22.632 152.456 22.568C152.456 22.48 152.464 22.408 152.48 22.352C152.488 22.288 152.512 22.24 152.552 22.208C152.584 22.168 152.632 22.148 152.696 22.148V23ZM154.148 23V14.396H155.084V23H154.148ZM152.696 23V22.148H154.148V23H152.696ZM156.38 23V22.148C156.428 22.148 156.468 22.16 156.5 22.184C156.532 22.2 156.556 22.228 156.572 22.268C156.588 22.3 156.6 22.344 156.608 22.4C156.616 22.448 156.62 22.504 156.62 22.568C156.62 22.632 156.616 22.692 156.608 22.748C156.6 22.804 156.588 22.852 156.572 22.892C156.556 22.924 156.532 22.952 156.5 22.976C156.468 22.992 156.428 23 156.38 23ZM157.827 23V14.396H158.763V23H157.827ZM156.375 23V22.148H157.827V23H156.375ZM156.375 23C156.327 23 156.287 22.992 156.255 22.976C156.223 22.952 156.199 22.924 156.183 22.892C156.167 22.852 156.155 22.804 156.147 22.748C156.139 22.692 156.135 22.632 156.135 22.568C156.135 22.48 156.143 22.408 156.159 22.352C156.167 22.288 156.191 22.24 156.231 22.208C156.263 22.168 156.311 22.148 156.375 22.148V23Z" fill="#1D4776"/>
<path d="M3.66321 41.108C3.42321 41.108 3.14321 41.092 2.82321 41.06C2.50321 41.036 2.18321 41.004 1.86321 40.964C1.55121 40.916 1.27521 40.876 1.03521 40.844L1.13121 40.052C1.36321 40.076 1.63121 40.104 1.93521 40.136C2.24721 40.168 2.55121 40.196 2.84721 40.22C3.15121 40.244 3.40721 40.256 3.61521 40.256C4.00721 40.256 4.33121 40.2 4.58721 40.088C4.84321 39.968 5.03521 39.788 5.16321 39.548C5.29121 39.308 5.35521 39 5.35521 38.624C5.35521 38.32 5.29521 38.08 5.17521 37.904C5.06321 37.72 4.87121 37.576 4.59921 37.472C4.33521 37.36 3.97921 37.26 3.53121 37.172C3.09921 37.084 2.72321 36.984 2.40321 36.872C2.08321 36.76 1.81521 36.62 1.59921 36.452C1.38321 36.276 1.22321 36.056 1.11921 35.792C1.01521 35.528 0.963207 35.2 0.963207 34.808C0.963207 34.272 1.07121 33.84 1.28721 33.512C1.51121 33.184 1.82321 32.944 2.22321 32.792C2.63121 32.64 3.10321 32.564 3.63921 32.564C3.87921 32.564 4.15121 32.58 4.45521 32.612C4.76721 32.636 5.07121 32.668 5.36721 32.708C5.67121 32.74 5.93121 32.776 6.14721 32.816L6.06321 33.62C5.83121 33.588 5.56321 33.56 5.25921 33.536C4.95521 33.504 4.66321 33.476 4.38321 33.452C4.10321 33.428 3.87921 33.416 3.71121 33.416C3.32721 33.416 3.00321 33.464 2.73921 33.56C2.47521 33.656 2.27521 33.804 2.13921 34.004C2.00321 34.196 1.93521 34.444 1.93521 34.748C1.93521 35.1 1.99921 35.368 2.12721 35.552C2.26321 35.736 2.47921 35.88 2.77521 35.984C3.07121 36.088 3.45921 36.196 3.93921 36.308C4.35521 36.404 4.71121 36.508 5.00721 36.62C5.31121 36.732 5.55921 36.872 5.75121 37.04C5.95121 37.2 6.09521 37.404 6.18321 37.652C6.27921 37.892 6.32721 38.192 6.32721 38.552C6.32721 39.16 6.21921 39.652 6.00321 40.028C5.78721 40.404 5.47921 40.68 5.07921 40.856C4.67921 41.024 4.20721 41.108 3.66321 41.108ZM9.06311 41.12C8.51111 41.12 8.09111 40.964 7.80311 40.652C7.51511 40.34 7.37111 39.884 7.37111 39.284C7.37111 38.892 7.43911 38.572 7.57511 38.324C7.71111 38.076 7.91511 37.888 8.18711 37.76C8.46711 37.624 8.81111 37.54 9.21911 37.508L11.0671 37.328V36.812C11.0671 36.404 10.9751 36.116 10.7911 35.948C10.6151 35.78 10.3511 35.696 9.99911 35.696C9.79911 35.696 9.55911 35.704 9.27911 35.72C9.00711 35.736 8.73511 35.756 8.46311 35.78C8.19111 35.804 7.95111 35.828 7.74311 35.852L7.69511 35.144C7.88711 35.104 8.11911 35.064 8.39111 35.024C8.66311 34.984 8.94711 34.952 9.24311 34.928C9.53911 34.896 9.81111 34.88 10.0591 34.88C10.5151 34.88 10.8871 34.952 11.1751 35.096C11.4631 35.232 11.6711 35.444 11.7991 35.732C11.9351 36.012 12.0031 36.372 12.0031 36.812V39.848C12.0191 40.024 12.0871 40.152 12.2071 40.232C12.3351 40.312 12.4951 40.364 12.6871 40.388L12.6511 41.12C12.5391 41.12 12.4311 41.116 12.3271 41.108C12.2231 41.1 12.1231 41.084 12.0271 41.06C11.9391 41.044 11.8511 41.024 11.7631 41C11.6591 40.96 11.5591 40.912 11.4631 40.856C11.3751 40.8 11.2871 40.732 11.1991 40.652C11.0471 40.716 10.8511 40.784 10.6111 40.856C10.3791 40.928 10.1271 40.988 9.85511 41.036C9.59111 41.092 9.32711 41.12 9.06311 41.12ZM9.21911 40.34C9.43511 40.34 9.65911 40.32 9.89111 40.28C10.1231 40.24 10.3431 40.192 10.5511 40.136C10.7591 40.08 10.9311 40.028 11.0671 39.98V38.024L9.32711 38.192C8.96711 38.224 8.70711 38.328 8.54711 38.504C8.39511 38.68 8.31911 38.932 8.31911 39.26C8.31911 39.596 8.39511 39.86 8.54711 40.052C8.69911 40.244 8.92311 40.34 9.21911 40.34ZM15.5557 41.12C15.0437 41.12 14.6517 41.016 14.3797 40.808C14.1077 40.6 13.9197 40.276 13.8157 39.836C13.7197 39.396 13.6717 38.828 13.6717 38.132V35H14.5957V38.132C14.5957 38.66 14.6197 39.08 14.6677 39.392C14.7237 39.704 14.8397 39.932 15.0157 40.076C15.1917 40.212 15.4557 40.28 15.8077 40.28C16.1597 40.28 16.4797 40.232 16.7677 40.136C17.0557 40.04 17.2877 39.944 17.4637 39.848V35H18.3877V41H17.4637V40.58C17.2077 40.724 16.9277 40.852 16.6237 40.964C16.3277 41.068 15.9717 41.12 15.5557 41.12ZM22.0144 41.12C21.7744 41.12 21.5464 41.092 21.3304 41.036C21.1144 40.988 20.9144 40.9 20.7304 40.772C20.5544 40.644 20.3984 40.468 20.2624 40.244C20.1264 40.012 20.0224 39.716 19.9504 39.356C19.8784 38.996 19.8424 38.56 19.8424 38.048C19.8424 37.336 19.9264 36.748 20.0944 36.284C20.2624 35.812 20.5304 35.46 20.8984 35.228C21.2664 34.996 21.7544 34.88 22.3624 34.88C22.5144 34.88 22.6824 34.888 22.8664 34.904C23.0504 34.92 23.2264 34.94 23.3944 34.964C23.5704 34.988 23.7104 35.012 23.8144 35.036V32.396H24.7504V41H23.8264V40.604C23.6984 40.676 23.5304 40.752 23.3224 40.832C23.1224 40.912 22.9064 40.98 22.6744 41.036C22.4504 41.092 22.2304 41.12 22.0144 41.12ZM22.1344 40.28C22.3424 40.28 22.5504 40.256 22.7584 40.208C22.9744 40.16 23.1744 40.104 23.3584 40.04C23.5424 39.968 23.6944 39.904 23.8144 39.848V35.828C23.7184 35.812 23.5864 35.796 23.4184 35.78C23.2504 35.756 23.0744 35.736 22.8904 35.72C22.7144 35.704 22.5544 35.696 22.4104 35.696C22.0024 35.696 21.6824 35.784 21.4504 35.96C21.2184 36.136 21.0504 36.4 20.9464 36.752C20.8504 37.096 20.8024 37.528 20.8024 38.048C20.8024 38.528 20.8384 38.916 20.9104 39.212C20.9824 39.5 21.0784 39.724 21.1984 39.884C21.3264 40.036 21.4704 40.14 21.6304 40.196C21.7904 40.252 21.9584 40.28 22.1344 40.28ZM26.4817 41V35H27.4057V41H26.4817ZM26.4817 33.68V32.6H27.4057V33.68H26.4817ZM34.6468 41.12C34.0228 41.12 33.5108 41.028 33.1108 40.844C32.7188 40.66 32.4108 40.388 32.1868 40.028C31.9628 39.668 31.8068 39.224 31.7188 38.696C31.6388 38.168 31.5988 37.56 31.5988 36.872C31.5988 36.168 31.6388 35.548 31.7188 35.012C31.8068 34.476 31.9628 34.028 32.1868 33.668C32.4108 33.308 32.7188 33.036 33.1108 32.852C33.5108 32.668 34.0228 32.576 34.6468 32.576C34.9348 32.576 35.2188 32.592 35.4988 32.624C35.7868 32.648 36.0548 32.684 36.3028 32.732C36.5508 32.772 36.7628 32.812 36.9388 32.852L36.9028 33.656C36.7268 33.624 36.5108 33.592 36.2548 33.56C35.9988 33.528 35.7388 33.5 35.4748 33.476C35.2108 33.452 34.9708 33.44 34.7548 33.44C34.2988 33.44 33.9268 33.508 33.6388 33.644C33.3588 33.78 33.1428 33.992 32.9908 34.28C32.8388 34.56 32.7348 34.916 32.6788 35.348C32.6228 35.772 32.5948 36.28 32.5948 36.872C32.5948 37.448 32.6228 37.952 32.6788 38.384C32.7348 38.808 32.8348 39.16 32.9788 39.44C33.1308 39.712 33.3508 39.916 33.6388 40.052C33.9268 40.188 34.3028 40.256 34.7668 40.256C35.1028 40.256 35.4708 40.236 35.8708 40.196C36.2788 40.148 36.6228 40.1 36.9028 40.052L36.9388 40.868C36.7468 40.908 36.5228 40.948 36.2668 40.988C36.0108 41.028 35.7428 41.06 35.4628 41.084C35.1828 41.108 34.9108 41.12 34.6468 41.12ZM40.301 41.12C39.701 41.12 39.225 41.004 38.873 40.772C38.529 40.54 38.281 40.196 38.129 39.74C37.977 39.284 37.901 38.716 37.901 38.036C37.901 37.276 38.005 36.668 38.213 36.212C38.421 35.748 38.713 35.412 39.089 35.204C39.465 34.988 39.909 34.88 40.421 34.88C41.221 34.88 41.825 35.104 42.233 35.552C42.641 35.992 42.845 36.704 42.845 37.688L42.797 38.396H38.849C38.857 39.02 38.973 39.492 39.197 39.812C39.421 40.132 39.825 40.292 40.409 40.292C40.633 40.292 40.877 40.288 41.141 40.28C41.413 40.264 41.681 40.248 41.945 40.232C42.209 40.216 42.433 40.2 42.617 40.184L42.641 40.916C42.449 40.948 42.213 40.98 41.933 41.012C41.661 41.044 41.381 41.068 41.093 41.084C40.805 41.108 40.541 41.12 40.301 41.12ZM38.849 37.64H41.909C41.909 36.904 41.789 36.392 41.549 36.104C41.317 35.808 40.941 35.66 40.421 35.66C40.085 35.66 39.801 35.728 39.569 35.864C39.337 35.992 39.157 36.2 39.029 36.488C38.909 36.776 38.849 37.16 38.849 37.64ZM44.2356 41V35H45.1596V35.42C45.2956 35.34 45.4636 35.26 45.6636 35.18C45.8716 35.1 46.0916 35.032 46.3236 34.976C46.5556 34.912 46.7796 34.88 46.9956 34.88C47.4116 34.88 47.7516 34.936 48.0156 35.048C48.2796 35.152 48.4836 35.324 48.6276 35.564C48.7796 35.796 48.8836 36.1 48.9396 36.476C49.0036 36.844 49.0356 37.292 49.0356 37.82V41H48.0996V37.856C48.0996 37.336 48.0676 36.92 48.0036 36.608C47.9476 36.296 47.8276 36.072 47.6436 35.936C47.4676 35.792 47.1956 35.72 46.8276 35.72C46.6276 35.72 46.4196 35.744 46.2036 35.792C45.9956 35.832 45.7996 35.888 45.6156 35.96C45.4316 36.024 45.2796 36.088 45.1596 36.152V41H44.2356ZM52.6255 41.132C52.2095 41.132 51.8775 41.068 51.6295 40.94C51.3895 40.812 51.2175 40.592 51.1135 40.28C51.0095 39.96 50.9575 39.512 50.9575 38.936V35.804H50.1055V35H50.9575V33.164H51.8815V35H53.7655V35.804H51.8815V38.66C51.8815 39.084 51.8975 39.416 51.9295 39.656C51.9695 39.888 52.0495 40.052 52.1695 40.148C52.2895 40.244 52.4775 40.292 52.7335 40.292C52.8135 40.292 52.9175 40.288 53.0455 40.28C53.1735 40.272 53.3015 40.264 53.4295 40.256C53.5655 40.24 53.6855 40.228 53.7895 40.22L53.8495 41C53.7375 41.016 53.6055 41.032 53.4535 41.048C53.3015 41.072 53.1495 41.092 52.9975 41.108C52.8535 41.124 52.7295 41.132 52.6255 41.132ZM56.9885 41.12C56.3885 41.12 55.9125 41.004 55.5605 40.772C55.2165 40.54 54.9685 40.196 54.8165 39.74C54.6645 39.284 54.5885 38.716 54.5885 38.036C54.5885 37.276 54.6925 36.668 54.9005 36.212C55.1085 35.748 55.4005 35.412 55.7765 35.204C56.1525 34.988 56.5965 34.88 57.1085 34.88C57.9085 34.88 58.5125 35.104 58.9205 35.552C59.3285 35.992 59.5325 36.704 59.5325 37.688L59.4845 38.396H55.5365C55.5445 39.02 55.6605 39.492 55.8845 39.812C56.1085 40.132 56.5125 40.292 57.0965 40.292C57.3205 40.292 57.5645 40.288 57.8285 40.28C58.1005 40.264 58.3685 40.248 58.6325 40.232C58.8965 40.216 59.1205 40.2 59.3045 40.184L59.3285 40.916C59.1365 40.948 58.9005 40.98 58.6205 41.012C58.3485 41.044 58.0685 41.068 57.7805 41.084C57.4925 41.108 57.2285 41.12 56.9885 41.12ZM55.5365 37.64H58.5965C58.5965 36.904 58.4765 36.392 58.2365 36.104C58.0045 35.808 57.6285 35.66 57.1085 35.66C56.7725 35.66 56.4885 35.728 56.2565 35.864C56.0245 35.992 55.8445 36.2 55.7165 36.488C55.5965 36.776 55.5365 37.16 55.5365 37.64ZM60.9231 41V35H61.8471V35.804C61.9991 35.7 62.1911 35.588 62.4231 35.468C62.6551 35.34 62.9111 35.22 63.1911 35.108C63.4711 34.996 63.7511 34.916 64.0311 34.868V35.816C63.7591 35.872 63.4831 35.948 63.2031 36.044C62.9231 36.132 62.6631 36.228 62.4231 36.332C62.1911 36.436 61.9991 36.528 61.8471 36.608V41H60.9231ZM67.864 41V32.708H72.844V33.56H68.824V36.752H72.22V37.604H68.824V41H67.864ZM76.0005 41.12C75.3285 41.12 74.8045 41.004 74.4285 40.772C74.0605 40.54 73.8005 40.188 73.6485 39.716C73.5045 39.244 73.4325 38.648 73.4325 37.928C73.4325 37.24 73.5125 36.672 73.6725 36.224C73.8405 35.776 74.1125 35.44 74.4885 35.216C74.8645 34.992 75.3685 34.88 76.0005 34.88C76.6405 34.88 77.1485 34.992 77.5245 35.216C77.9005 35.44 78.1685 35.776 78.3285 36.224C78.4965 36.672 78.5805 37.24 78.5805 37.928C78.5805 38.648 78.5045 39.244 78.3525 39.716C78.2085 40.188 77.9485 40.54 77.5725 40.772C77.2045 41.004 76.6805 41.12 76.0005 41.12ZM76.0005 40.316C76.4645 40.316 76.8125 40.236 77.0445 40.076C77.2765 39.908 77.4285 39.648 77.5005 39.296C77.5805 38.944 77.6205 38.488 77.6205 37.928C77.6205 37.376 77.5725 36.936 77.4765 36.608C77.3805 36.28 77.2165 36.044 76.9845 35.9C76.7525 35.756 76.4245 35.684 76.0005 35.684C75.5845 35.684 75.2565 35.756 75.0165 35.9C74.7845 36.044 74.6205 36.28 74.5245 36.608C74.4285 36.936 74.3805 37.376 74.3805 37.928C74.3805 38.488 74.4165 38.944 74.4885 39.296C74.5685 39.648 74.7245 39.908 74.9565 40.076C75.1885 40.236 75.5365 40.316 76.0005 40.316ZM80.0481 41V35H80.9721V35.804C81.1241 35.7 81.3161 35.588 81.5481 35.468C81.7801 35.34 82.0361 35.22 82.3161 35.108C82.5961 34.996 82.8761 34.916 83.1561 34.868V35.816C82.8841 35.872 82.6081 35.948 82.3281 36.044C82.0481 36.132 81.7881 36.228 81.5481 36.332C81.3161 36.436 81.1241 36.528 80.9721 36.608V41H80.0481ZM86.989 41V32.708H87.949V41H86.989ZM89.8215 41V35H90.7455V35.42C90.8815 35.34 91.0495 35.26 91.2495 35.18C91.4575 35.1 91.6775 35.032 91.9095 34.976C92.1415 34.912 92.3655 34.88 92.5815 34.88C92.9975 34.88 93.3375 34.936 93.6015 35.048C93.8655 35.152 94.0695 35.324 94.2135 35.564C94.3655 35.796 94.4695 36.1 94.5255 36.476C94.5895 36.844 94.6215 37.292 94.6215 37.82V41H93.6855V37.856C93.6855 37.336 93.6535 36.92 93.5895 36.608C93.5335 36.296 93.4135 36.072 93.2295 35.936C93.0535 35.792 92.7815 35.72 92.4135 35.72C92.2135 35.72 92.0055 35.744 91.7895 35.792C91.5815 35.832 91.3855 35.888 91.2015 35.96C91.0175 36.024 90.8655 36.088 90.7455 36.152V41H89.8215ZM98.2114 41.132C97.7954 41.132 97.4634 41.068 97.2154 40.94C96.9754 40.812 96.8034 40.592 96.6994 40.28C96.5954 39.96 96.5434 39.512 96.5434 38.936V35.804H95.6914V35H96.5434V33.164H97.4674V35H99.3514V35.804H97.4674V38.66C97.4674 39.084 97.4834 39.416 97.5154 39.656C97.5554 39.888 97.6354 40.052 97.7554 40.148C97.8754 40.244 98.0634 40.292 98.3194 40.292C98.3994 40.292 98.5034 40.288 98.6314 40.28C98.7594 40.272 98.8874 40.264 99.0154 40.256C99.1514 40.24 99.2714 40.228 99.3754 40.22L99.4354 41C99.3234 41.016 99.1914 41.032 99.0394 41.048C98.8874 41.072 98.7354 41.092 98.5834 41.108C98.4394 41.124 98.3154 41.132 98.2114 41.132ZM102.574 41.12C101.974 41.12 101.498 41.004 101.146 40.772C100.802 40.54 100.554 40.196 100.402 39.74C100.25 39.284 100.174 38.716 100.174 38.036C100.174 37.276 100.278 36.668 100.486 36.212C100.694 35.748 100.986 35.412 101.362 35.204C101.738 34.988 102.182 34.88 102.694 34.88C103.494 34.88 104.098 35.104 104.506 35.552C104.914 35.992 105.118 36.704 105.118 37.688L105.07 38.396H101.122C101.13 39.02 101.246 39.492 101.47 39.812C101.694 40.132 102.098 40.292 102.682 40.292C102.906 40.292 103.15 40.288 103.414 40.28C103.686 40.264 103.954 40.248 104.218 40.232C104.482 40.216 104.706 40.2 104.89 40.184L104.914 40.916C104.722 40.948 104.486 40.98 104.206 41.012C103.934 41.044 103.654 41.068 103.366 41.084C103.078 41.108 102.814 41.12 102.574 41.12ZM101.122 37.64H104.182C104.182 36.904 104.062 36.392 103.822 36.104C103.59 35.808 103.214 35.66 102.694 35.66C102.358 35.66 102.074 35.728 101.842 35.864C101.61 35.992 101.43 36.2 101.302 36.488C101.182 36.776 101.122 37.16 101.122 37.64ZM106.509 41V35H107.433V35.804C107.585 35.7 107.777 35.588 108.009 35.468C108.241 35.34 108.497 35.22 108.777 35.108C109.057 34.996 109.337 34.916 109.617 34.868V35.816C109.345 35.872 109.069 35.948 108.789 36.044C108.509 36.132 108.249 36.228 108.009 36.332C107.777 36.436 107.585 36.528 107.433 36.608V41H106.509ZM110.669 41V35H111.593V35.42C111.729 35.34 111.897 35.26 112.097 35.18C112.305 35.1 112.525 35.032 112.757 34.976C112.989 34.912 113.213 34.88 113.429 34.88C113.845 34.88 114.185 34.936 114.449 35.048C114.713 35.152 114.917 35.324 115.061 35.564C115.213 35.796 115.317 36.1 115.373 36.476C115.437 36.844 115.469 37.292 115.469 37.82V41H114.533V37.856C114.533 37.336 114.501 36.92 114.437 36.608C114.381 36.296 114.261 36.072 114.077 35.936C113.901 35.792 113.629 35.72 113.261 35.72C113.061 35.72 112.853 35.744 112.637 35.792C112.429 35.832 112.233 35.888 112.049 35.96C111.865 36.024 111.713 36.088 111.593 36.152V41H110.669ZM118.434 41.12C117.882 41.12 117.462 40.964 117.174 40.652C116.886 40.34 116.742 39.884 116.742 39.284C116.742 38.892 116.81 38.572 116.946 38.324C117.082 38.076 117.286 37.888 117.558 37.76C117.838 37.624 118.182 37.54 118.59 37.508L120.438 37.328V36.812C120.438 36.404 120.346 36.116 120.162 35.948C119.986 35.78 119.722 35.696 119.37 35.696C119.17 35.696 118.93 35.704 118.65 35.72C118.378 35.736 118.106 35.756 117.834 35.78C117.562 35.804 117.322 35.828 117.114 35.852L117.066 35.144C117.258 35.104 117.49 35.064 117.762 35.024C118.034 34.984 118.318 34.952 118.614 34.928C118.91 34.896 119.182 34.88 119.43 34.88C119.886 34.88 120.258 34.952 120.546 35.096C120.834 35.232 121.042 35.444 121.17 35.732C121.306 36.012 121.374 36.372 121.374 36.812V39.848C121.39 40.024 121.458 40.152 121.578 40.232C121.706 40.312 121.866 40.364 122.058 40.388L122.022 41.12C121.91 41.12 121.802 41.116 121.698 41.108C121.594 41.1 121.494 41.084 121.398 41.06C121.31 41.044 121.222 41.024 121.134 41C121.03 40.96 120.93 40.912 120.834 40.856C120.746 40.8 120.658 40.732 120.57 40.652C120.418 40.716 120.222 40.784 119.982 40.856C119.75 40.928 119.498 40.988 119.226 41.036C118.962 41.092 118.698 41.12 118.434 41.12ZM118.59 40.34C118.806 40.34 119.03 40.32 119.262 40.28C119.494 40.24 119.714 40.192 119.922 40.136C120.13 40.08 120.302 40.028 120.438 39.98V38.024L118.698 38.192C118.338 38.224 118.078 38.328 117.918 38.504C117.766 38.68 117.69 38.932 117.69 39.26C117.69 39.596 117.766 39.86 117.918 40.052C118.07 40.244 118.294 40.34 118.59 40.34ZM125.047 41.132C124.631 41.132 124.299 41.068 124.051 40.94C123.811 40.812 123.639 40.592 123.535 40.28C123.431 39.96 123.379 39.512 123.379 38.936V35.804H122.527V35H123.379V33.164H124.303V35H126.187V35.804H124.303V38.66C124.303 39.084 124.319 39.416 124.351 39.656C124.391 39.888 124.471 40.052 124.591 40.148C124.711 40.244 124.899 40.292 125.155 40.292C125.235 40.292 125.339 40.288 125.467 40.28C125.595 40.272 125.723 40.264 125.851 40.256C125.987 40.24 126.107 40.228 126.211 40.22L126.271 41C126.159 41.016 126.027 41.032 125.875 41.048C125.723 41.072 125.571 41.092 125.419 41.108C125.275 41.124 125.151 41.132 125.047 41.132ZM127.286 41V35H128.21V41H127.286ZM127.286 33.68V32.6H128.21V33.68H127.286ZM132.239 41.12C131.567 41.12 131.043 41.004 130.667 40.772C130.299 40.54 130.039 40.188 129.887 39.716C129.743 39.244 129.671 38.648 129.671 37.928C129.671 37.24 129.751 36.672 129.911 36.224C130.079 35.776 130.351 35.44 130.727 35.216C131.103 34.992 131.607 34.88 132.239 34.88C132.879 34.88 133.387 34.992 133.763 35.216C134.139 35.44 134.407 35.776 134.567 36.224C134.735 36.672 134.819 37.24 134.819 37.928C134.819 38.648 134.743 39.244 134.591 39.716C134.447 40.188 134.187 40.54 133.811 40.772C133.443 41.004 132.919 41.12 132.239 41.12ZM132.239 40.316C132.703 40.316 133.051 40.236 133.283 40.076C133.515 39.908 133.667 39.648 133.739 39.296C133.819 38.944 133.859 38.488 133.859 37.928C133.859 37.376 133.811 36.936 133.715 36.608C133.619 36.28 133.455 36.044 133.223 35.9C132.991 35.756 132.663 35.684 132.239 35.684C131.823 35.684 131.495 35.756 131.255 35.9C131.023 36.044 130.859 36.28 130.763 36.608C130.667 36.936 130.619 37.376 130.619 37.928C130.619 38.488 130.655 38.944 130.727 39.296C130.807 39.648 130.963 39.908 131.195 40.076C131.427 40.236 131.775 40.316 132.239 40.316ZM136.286 41V35H137.21V35.42C137.346 35.34 137.514 35.26 137.714 35.18C137.922 35.1 138.142 35.032 138.374 34.976C138.606 34.912 138.83 34.88 139.046 34.88C139.462 34.88 139.802 34.936 140.066 35.048C140.33 35.152 140.534 35.324 140.678 35.564C140.83 35.796 140.934 36.1 140.99 36.476C141.054 36.844 141.086 37.292 141.086 37.82V41H140.15V37.856C140.15 37.336 140.118 36.92 140.054 36.608C139.998 36.296 139.878 36.072 139.694 35.936C139.518 35.792 139.246 35.72 138.878 35.72C138.678 35.72 138.47 35.744 138.254 35.792C138.046 35.832 137.85 35.888 137.666 35.96C137.482 36.024 137.33 36.088 137.21 36.152V41H136.286ZM144.051 41.12C143.499 41.12 143.079 40.964 142.791 40.652C142.503 40.34 142.359 39.884 142.359 39.284C142.359 38.892 142.427 38.572 142.563 38.324C142.699 38.076 142.903 37.888 143.175 37.76C143.455 37.624 143.799 37.54 144.207 37.508L146.055 37.328V36.812C146.055 36.404 145.963 36.116 145.779 35.948C145.603 35.78 145.339 35.696 144.987 35.696C144.787 35.696 144.547 35.704 144.267 35.72C143.995 35.736 143.723 35.756 143.451 35.78C143.179 35.804 142.939 35.828 142.731 35.852L142.683 35.144C142.875 35.104 143.107 35.064 143.379 35.024C143.651 34.984 143.935 34.952 144.231 34.928C144.527 34.896 144.799 34.88 145.047 34.88C145.503 34.88 145.875 34.952 146.163 35.096C146.451 35.232 146.659 35.444 146.787 35.732C146.923 36.012 146.991 36.372 146.991 36.812V39.848C147.007 40.024 147.075 40.152 147.195 40.232C147.323 40.312 147.483 40.364 147.675 40.388L147.639 41.12C147.527 41.12 147.419 41.116 147.315 41.108C147.211 41.1 147.111 41.084 147.015 41.06C146.927 41.044 146.839 41.024 146.751 41C146.647 40.96 146.547 40.912 146.451 40.856C146.363 40.8 146.275 40.732 146.187 40.652C146.035 40.716 145.839 40.784 145.599 40.856C145.367 40.928 145.115 40.988 144.843 41.036C144.579 41.092 144.315 41.12 144.051 41.12ZM144.207 40.34C144.423 40.34 144.647 40.32 144.879 40.28C145.111 40.24 145.331 40.192 145.539 40.136C145.747 40.08 145.919 40.028 146.055 39.98V38.024L144.315 38.192C143.955 38.224 143.695 38.328 143.535 38.504C143.383 38.68 143.307 38.932 143.307 39.26C143.307 39.596 143.383 39.86 143.535 40.052C143.687 40.244 143.911 40.34 144.207 40.34ZM148.839 41V32.396H149.763V41H148.839Z" fill="black"/>
<path d="M156.616 41.108C156.376 41.108 156.096 41.092 155.776 41.06C155.456 41.036 155.136 41.004 154.816 40.964C154.504 40.916 154.228 40.876 153.988 40.844L154.084 40.052C154.316 40.076 154.584 40.104 154.888 40.136C155.2 40.168 155.504 40.196 155.8 40.22C156.104 40.244 156.36 40.256 156.568 40.256C156.96 40.256 157.284 40.2 157.54 40.088C157.796 39.968 157.988 39.788 158.116 39.548C158.244 39.308 158.308 39 158.308 38.624C158.308 38.32 158.248 38.08 158.128 37.904C158.016 37.72 157.824 37.576 157.552 37.472C157.288 37.36 156.932 37.26 156.484 37.172C156.052 37.084 155.676 36.984 155.356 36.872C155.036 36.76 154.768 36.62 154.552 36.452C154.336 36.276 154.176 36.056 154.072 35.792C153.968 35.528 153.916 35.2 153.916 34.808C153.916 34.272 154.024 33.84 154.24 33.512C154.464 33.184 154.776 32.944 155.176 32.792C155.584 32.64 156.056 32.564 156.592 32.564C156.832 32.564 157.104 32.58 157.408 32.612C157.72 32.636 158.024 32.668 158.32 32.708C158.624 32.74 158.884 32.776 159.1 32.816L159.016 33.62C158.784 33.588 158.516 33.56 158.212 33.536C157.908 33.504 157.616 33.476 157.336 33.452C157.056 33.428 156.832 33.416 156.664 33.416C156.28 33.416 155.956 33.464 155.692 33.56C155.428 33.656 155.228 33.804 155.092 34.004C154.956 34.196 154.888 34.444 154.888 34.748C154.888 35.1 154.952 35.368 155.08 35.552C155.216 35.736 155.432 35.88 155.728 35.984C156.024 36.088 156.412 36.196 156.892 36.308C157.308 36.404 157.664 36.508 157.96 36.62C158.264 36.732 158.512 36.872 158.704 37.04C158.904 37.2 159.048 37.404 159.136 37.652C159.232 37.892 159.28 38.192 159.28 38.552C159.28 39.16 159.172 39.652 158.956 40.028C158.74 40.404 158.432 40.68 158.032 40.856C157.632 41.024 157.16 41.108 156.616 41.108ZM162.582 41.132C162.166 41.132 161.834 41.068 161.586 40.94C161.346 40.812 161.174 40.592 161.07 40.28C160.966 39.96 160.914 39.512 160.914 38.936V35.804H160.062V35H160.914V33.164H161.838V35H163.722V35.804H161.838V38.66C161.838 39.084 161.854 39.416 161.886 39.656C161.926 39.888 162.006 40.052 162.126 40.148C162.246 40.244 162.434 40.292 162.69 40.292C162.77 40.292 162.874 40.288 163.002 40.28C163.13 40.272 163.258 40.264 163.386 40.256C163.522 40.24 163.642 40.228 163.746 40.22L163.806 41C163.694 41.016 163.562 41.032 163.41 41.048C163.258 41.072 163.106 41.092 162.954 41.108C162.81 41.124 162.686 41.132 162.582 41.132ZM164.822 41V35H165.746V35.804C165.898 35.7 166.09 35.588 166.322 35.468C166.554 35.34 166.81 35.22 167.09 35.108C167.37 34.996 167.65 34.916 167.93 34.868V35.816C167.658 35.872 167.382 35.948 167.102 36.044C166.822 36.132 166.562 36.228 166.322 36.332C166.09 36.436 165.898 36.528 165.746 36.608V41H164.822ZM170.29 41.12C169.738 41.12 169.318 40.964 169.03 40.652C168.742 40.34 168.598 39.884 168.598 39.284C168.598 38.892 168.666 38.572 168.802 38.324C168.938 38.076 169.142 37.888 169.414 37.76C169.694 37.624 170.038 37.54 170.446 37.508L172.294 37.328V36.812C172.294 36.404 172.202 36.116 172.018 35.948C171.842 35.78 171.578 35.696 171.226 35.696C171.026 35.696 170.786 35.704 170.506 35.72C170.234 35.736 169.962 35.756 169.69 35.78C169.418 35.804 169.178 35.828 168.97 35.852L168.922 35.144C169.114 35.104 169.346 35.064 169.618 35.024C169.89 34.984 170.174 34.952 170.47 34.928C170.766 34.896 171.038 34.88 171.286 34.88C171.742 34.88 172.114 34.952 172.402 35.096C172.69 35.232 172.898 35.444 173.026 35.732C173.162 36.012 173.23 36.372 173.23 36.812V39.848C173.246 40.024 173.314 40.152 173.434 40.232C173.562 40.312 173.722 40.364 173.914 40.388L173.878 41.12C173.766 41.12 173.658 41.116 173.554 41.108C173.45 41.1 173.35 41.084 173.254 41.06C173.166 41.044 173.078 41.024 172.99 41C172.886 40.96 172.786 40.912 172.69 40.856C172.602 40.8 172.514 40.732 172.426 40.652C172.274 40.716 172.078 40.784 171.838 40.856C171.606 40.928 171.354 40.988 171.082 41.036C170.818 41.092 170.554 41.12 170.29 41.12ZM170.446 40.34C170.662 40.34 170.886 40.32 171.118 40.28C171.35 40.24 171.57 40.192 171.778 40.136C171.986 40.08 172.158 40.028 172.294 39.98V38.024L170.554 38.192C170.194 38.224 169.934 38.328 169.774 38.504C169.622 38.68 169.546 38.932 169.546 39.26C169.546 39.596 169.622 39.86 169.774 40.052C169.926 40.244 170.15 40.34 170.446 40.34ZM176.903 41.132C176.487 41.132 176.155 41.068 175.907 40.94C175.667 40.812 175.495 40.592 175.391 40.28C175.287 39.96 175.235 39.512 175.235 38.936V35.804H174.383V35H175.235V33.164H176.159V35H178.043V35.804H176.159V38.66C176.159 39.084 176.175 39.416 176.207 39.656C176.247 39.888 176.327 40.052 176.447 40.148C176.567 40.244 176.755 40.292 177.011 40.292C177.091 40.292 177.195 40.288 177.323 40.28C177.451 40.272 177.579 40.264 177.707 40.256C177.843 40.24 177.963 40.228 178.067 40.22L178.127 41C178.015 41.016 177.883 41.032 177.731 41.048C177.579 41.072 177.427 41.092 177.275 41.108C177.131 41.124 177.007 41.132 176.903 41.132ZM181.266 41.12C180.666 41.12 180.19 41.004 179.838 40.772C179.494 40.54 179.246 40.196 179.094 39.74C178.942 39.284 178.866 38.716 178.866 38.036C178.866 37.276 178.97 36.668 179.178 36.212C179.386 35.748 179.678 35.412 180.054 35.204C180.43 34.988 180.874 34.88 181.386 34.88C182.186 34.88 182.79 35.104 183.198 35.552C183.606 35.992 183.81 36.704 183.81 37.688L183.762 38.396H179.814C179.822 39.02 179.938 39.492 180.162 39.812C180.386 40.132 180.79 40.292 181.374 40.292C181.598 40.292 181.842 40.288 182.106 40.28C182.378 40.264 182.646 40.248 182.91 40.232C183.174 40.216 183.398 40.2 183.582 40.184L183.606 40.916C183.414 40.948 183.178 40.98 182.898 41.012C182.626 41.044 182.346 41.068 182.058 41.084C181.77 41.108 181.506 41.12 181.266 41.12ZM179.814 37.64H182.874C182.874 36.904 182.754 36.392 182.514 36.104C182.282 35.808 181.906 35.66 181.386 35.66C181.05 35.66 180.766 35.728 180.534 35.864C180.302 35.992 180.122 36.2 179.994 36.488C179.874 36.776 179.814 37.16 179.814 37.64ZM187.516 43.82C186.892 43.82 186.388 43.764 186.004 43.652C185.628 43.548 185.352 43.364 185.176 43.1C185.008 42.836 184.924 42.476 184.924 42.02C184.924 41.788 184.96 41.588 185.032 41.42C185.104 41.26 185.208 41.112 185.344 40.976C185.488 40.832 185.664 40.684 185.872 40.532C185.768 40.452 185.684 40.34 185.62 40.196C185.564 40.044 185.536 39.876 185.536 39.692C185.536 39.636 185.556 39.552 185.596 39.44C185.644 39.328 185.7 39.212 185.764 39.092C185.828 38.964 185.888 38.848 185.944 38.744C185.776 38.664 185.62 38.556 185.476 38.42C185.34 38.276 185.228 38.084 185.14 37.844C185.052 37.604 185.008 37.3 185.008 36.932C185.008 36.436 185.1 36.04 185.284 35.744C185.476 35.44 185.74 35.22 186.076 35.084C186.42 34.948 186.812 34.88 187.252 34.88C187.468 34.88 187.696 34.896 187.936 34.928C188.176 34.96 188.364 34.996 188.5 35.036L190.288 34.988V35.78L189.16 35.756C189.272 35.868 189.364 36.016 189.436 36.2C189.516 36.384 189.556 36.628 189.556 36.932C189.556 37.452 189.468 37.86 189.292 38.156C189.116 38.452 188.856 38.66 188.512 38.78C188.168 38.9 187.736 38.96 187.216 38.96C187.16 38.96 187.064 38.956 186.928 38.948C186.8 38.932 186.704 38.92 186.64 38.912C186.592 39.024 186.544 39.152 186.496 39.296C186.448 39.44 186.424 39.54 186.424 39.596C186.424 39.716 186.436 39.812 186.46 39.884C186.492 39.948 186.552 40 186.64 40.04C186.736 40.08 186.88 40.108 187.072 40.124C187.264 40.132 187.528 40.136 187.864 40.136C188.44 40.136 188.9 40.184 189.244 40.28C189.588 40.376 189.832 40.552 189.976 40.808C190.128 41.056 190.204 41.42 190.204 41.9C190.204 42.58 189.968 43.068 189.496 43.364C189.024 43.668 188.364 43.82 187.516 43.82ZM187.528 43.028C188.12 43.028 188.556 42.944 188.836 42.776C189.116 42.608 189.256 42.332 189.256 41.948C189.256 41.652 189.208 41.432 189.112 41.288C189.024 41.152 188.872 41.06 188.656 41.012C188.44 40.972 188.152 40.952 187.792 40.952C187.72 40.952 187.62 40.952 187.492 40.952C187.364 40.944 187.232 40.94 187.096 40.94C186.96 40.932 186.836 40.924 186.724 40.916C186.62 40.908 186.548 40.904 186.508 40.904C186.348 41.024 186.216 41.132 186.112 41.228C186.016 41.332 185.948 41.436 185.908 41.54C185.868 41.652 185.848 41.784 185.848 41.936C185.848 42.2 185.896 42.412 185.992 42.572C186.088 42.732 186.256 42.848 186.496 42.92C186.744 42.992 187.088 43.028 187.528 43.028ZM187.252 38.216C187.748 38.216 188.1 38.12 188.308 37.928C188.516 37.728 188.62 37.396 188.62 36.932C188.62 36.468 188.516 36.136 188.308 35.936C188.1 35.736 187.748 35.636 187.252 35.636C186.788 35.636 186.452 35.736 186.244 35.936C186.044 36.136 185.944 36.468 185.944 36.932C185.944 37.396 186.044 37.728 186.244 37.928C186.452 38.12 186.788 38.216 187.252 38.216ZM191.376 41V35H192.3V41H191.376ZM191.376 33.68V32.6H192.3V33.68H191.376ZM196.245 41.12C195.613 41.12 195.117 41.016 194.757 40.808C194.397 40.592 194.141 40.248 193.989 39.776C193.845 39.304 193.773 38.68 193.773 37.904C193.773 37.176 193.853 36.592 194.013 36.152C194.181 35.704 194.449 35.38 194.817 35.18C195.185 34.98 195.665 34.88 196.257 34.88C196.393 34.88 196.557 34.892 196.749 34.916C196.949 34.932 197.153 34.956 197.361 34.988C197.569 35.012 197.749 35.036 197.901 35.06L197.865 35.828C197.729 35.812 197.573 35.796 197.397 35.78C197.221 35.764 197.049 35.752 196.881 35.744C196.713 35.728 196.573 35.72 196.461 35.72C196.005 35.72 195.649 35.792 195.393 35.936C195.145 36.08 194.969 36.312 194.865 36.632C194.769 36.944 194.721 37.368 194.721 37.904C194.721 38.488 194.765 38.956 194.853 39.308C194.941 39.652 195.109 39.9 195.357 40.052C195.605 40.204 195.973 40.28 196.461 40.28C196.573 40.28 196.713 40.276 196.881 40.268C197.057 40.252 197.233 40.236 197.409 40.22C197.593 40.204 197.753 40.192 197.889 40.184L197.913 40.952C197.753 40.976 197.569 41 197.361 41.024C197.153 41.048 196.949 41.068 196.749 41.084C196.549 41.108 196.381 41.12 196.245 41.12ZM202.032 41V32.708H205.068C205.676 32.708 206.176 32.808 206.568 33.008C206.96 33.2 207.252 33.496 207.444 33.896C207.636 34.288 207.732 34.788 207.732 35.396C207.732 35.996 207.636 36.508 207.444 36.932C207.252 37.348 206.96 37.668 206.568 37.892C206.176 38.108 205.676 38.216 205.068 38.216H202.992V41H202.032ZM202.992 37.376H205.068C205.66 37.376 206.088 37.204 206.352 36.86C206.616 36.516 206.748 36.028 206.748 35.396C206.748 34.756 206.616 34.288 206.352 33.992C206.088 33.696 205.66 33.548 205.068 33.548H202.992V37.376ZM210.18 41.12C209.628 41.12 209.208 40.964 208.92 40.652C208.632 40.34 208.488 39.884 208.488 39.284C208.488 38.892 208.556 38.572 208.692 38.324C208.828 38.076 209.032 37.888 209.304 37.76C209.584 37.624 209.928 37.54 210.336 37.508L212.184 37.328V36.812C212.184 36.404 212.092 36.116 211.908 35.948C211.732 35.78 211.468 35.696 211.116 35.696C210.916 35.696 210.676 35.704 210.396 35.72C210.124 35.736 209.852 35.756 209.58 35.78C209.308 35.804 209.068 35.828 208.86 35.852L208.812 35.144C209.004 35.104 209.236 35.064 209.508 35.024C209.78 34.984 210.064 34.952 210.36 34.928C210.656 34.896 210.928 34.88 211.176 34.88C211.632 34.88 212.004 34.952 212.292 35.096C212.58 35.232 212.788 35.444 212.916 35.732C213.052 36.012 213.12 36.372 213.12 36.812V39.848C213.136 40.024 213.204 40.152 213.324 40.232C213.452 40.312 213.612 40.364 213.804 40.388L213.768 41.12C213.656 41.12 213.548 41.116 213.444 41.108C213.34 41.1 213.24 41.084 213.144 41.06C213.056 41.044 212.968 41.024 212.88 41C212.776 40.96 212.676 40.912 212.58 40.856C212.492 40.8 212.404 40.732 212.316 40.652C212.164 40.716 211.968 40.784 211.728 40.856C211.496 40.928 211.244 40.988 210.972 41.036C210.708 41.092 210.444 41.12 210.18 41.12ZM210.336 40.34C210.552 40.34 210.776 40.32 211.008 40.28C211.24 40.24 211.46 40.192 211.668 40.136C211.876 40.08 212.048 40.028 212.184 39.98V38.024L210.444 38.192C210.084 38.224 209.824 38.328 209.664 38.504C209.512 38.68 209.436 38.932 209.436 39.26C209.436 39.596 209.512 39.86 209.664 40.052C209.816 40.244 210.04 40.34 210.336 40.34ZM214.896 41V35H215.82V35.804C215.972 35.7 216.164 35.588 216.396 35.468C216.628 35.34 216.884 35.22 217.164 35.108C217.444 34.996 217.724 34.916 218.004 34.868V35.816C217.732 35.872 217.456 35.948 217.176 36.044C216.896 36.132 216.636 36.228 216.396 36.332C216.164 36.436 215.972 36.528 215.82 36.608V41H214.896ZM221.024 41.132C220.608 41.132 220.276 41.068 220.028 40.94C219.788 40.812 219.616 40.592 219.512 40.28C219.408 39.96 219.356 39.512 219.356 38.936V35.804H218.504V35H219.356V33.164H220.28V35H222.164V35.804H220.28V38.66C220.28 39.084 220.296 39.416 220.328 39.656C220.368 39.888 220.448 40.052 220.568 40.148C220.688 40.244 220.876 40.292 221.132 40.292C221.212 40.292 221.316 40.288 221.444 40.28C221.572 40.272 221.7 40.264 221.828 40.256C221.964 40.24 222.084 40.228 222.188 40.22L222.248 41C222.136 41.016 222.004 41.032 221.852 41.048C221.7 41.072 221.548 41.092 221.396 41.108C221.252 41.124 221.128 41.132 221.024 41.132ZM223.263 41V35H224.187V35.42C224.323 35.34 224.491 35.26 224.691 35.18C224.899 35.1 225.119 35.032 225.351 34.976C225.583 34.912 225.807 34.88 226.023 34.88C226.439 34.88 226.779 34.936 227.043 35.048C227.307 35.152 227.511 35.324 227.655 35.564C227.807 35.796 227.911 36.1 227.967 36.476C228.031 36.844 228.063 37.292 228.063 37.82V41H227.127V37.856C227.127 37.336 227.095 36.92 227.031 36.608C226.975 36.296 226.855 36.072 226.671 35.936C226.495 35.792 226.223 35.72 225.855 35.72C225.655 35.72 225.447 35.744 225.231 35.792C225.023 35.832 224.827 35.888 224.643 35.96C224.459 36.024 224.307 36.088 224.187 36.152V41H223.263ZM231.844 41.12C231.244 41.12 230.768 41.004 230.416 40.772C230.072 40.54 229.824 40.196 229.672 39.74C229.52 39.284 229.444 38.716 229.444 38.036C229.444 37.276 229.548 36.668 229.756 36.212C229.964 35.748 230.256 35.412 230.632 35.204C231.008 34.988 231.452 34.88 231.964 34.88C232.764 34.88 233.368 35.104 233.776 35.552C234.184 35.992 234.388 36.704 234.388 37.688L234.34 38.396H230.392C230.4 39.02 230.516 39.492 230.74 39.812C230.964 40.132 231.368 40.292 231.952 40.292C232.176 40.292 232.42 40.288 232.684 40.28C232.956 40.264 233.224 40.248 233.488 40.232C233.752 40.216 233.976 40.2 234.16 40.184L234.184 40.916C233.992 40.948 233.756 40.98 233.476 41.012C233.204 41.044 232.924 41.068 232.636 41.084C232.348 41.108 232.084 41.12 231.844 41.12ZM230.392 37.64H233.452C233.452 36.904 233.332 36.392 233.092 36.104C232.86 35.808 232.484 35.66 231.964 35.66C231.628 35.66 231.344 35.728 231.112 35.864C230.88 35.992 230.7 36.2 230.572 36.488C230.452 36.776 230.392 37.16 230.392 37.64ZM235.779 41V35H236.703V35.804C236.855 35.7 237.047 35.588 237.279 35.468C237.511 35.34 237.767 35.22 238.047 35.108C238.327 34.996 238.607 34.916 238.887 34.868V35.816C238.615 35.872 238.339 35.948 238.059 36.044C237.779 36.132 237.519 36.228 237.279 36.332C237.047 36.436 236.855 36.528 236.703 36.608V41H235.779ZM241.811 41.12C241.627 41.12 241.403 41.108 241.139 41.084C240.883 41.06 240.627 41.032 240.371 41C240.115 40.96 239.887 40.924 239.687 40.892L239.735 40.088C239.935 40.112 240.159 40.14 240.407 40.172C240.663 40.204 240.911 40.232 241.151 40.256C241.391 40.272 241.583 40.28 241.727 40.28C242.055 40.28 242.327 40.252 242.543 40.196C242.759 40.132 242.923 40.028 243.035 39.884C243.147 39.74 243.203 39.536 243.203 39.272C243.203 39.072 243.159 38.916 243.071 38.804C242.991 38.692 242.835 38.6 242.603 38.528C242.379 38.456 242.051 38.388 241.619 38.324C241.171 38.252 240.795 38.164 240.491 38.06C240.195 37.948 239.975 37.784 239.831 37.568C239.687 37.352 239.615 37.044 239.615 36.644C239.615 36.196 239.719 35.844 239.927 35.588C240.135 35.332 240.403 35.152 240.731 35.048C241.067 34.936 241.415 34.88 241.775 34.88C241.999 34.88 242.243 34.892 242.507 34.916C242.779 34.94 243.043 34.972 243.299 35.012C243.555 35.044 243.775 35.076 243.959 35.108L243.935 35.912C243.743 35.88 243.519 35.852 243.263 35.828C243.007 35.796 242.751 35.772 242.495 35.756C242.239 35.732 242.015 35.72 241.823 35.72C241.583 35.72 241.367 35.748 241.175 35.804C240.983 35.852 240.831 35.94 240.719 36.068C240.607 36.196 240.551 36.376 240.551 36.608C240.551 36.784 240.591 36.928 240.671 37.04C240.751 37.144 240.903 37.232 241.127 37.304C241.351 37.376 241.675 37.448 242.099 37.52C242.595 37.6 242.991 37.7 243.287 37.82C243.591 37.94 243.811 38.108 243.947 38.324C244.083 38.54 244.151 38.844 244.151 39.236C244.151 39.7 244.055 40.072 243.863 40.352C243.679 40.624 243.411 40.82 243.059 40.94C242.715 41.06 242.299 41.12 241.811 41.12ZM245.529 41V32.396H246.453V35.324C246.597 35.26 246.769 35.196 246.969 35.132C247.177 35.06 247.397 35 247.629 34.952C247.861 34.904 248.081 34.88 248.289 34.88C248.705 34.88 249.045 34.936 249.309 35.048C249.573 35.152 249.777 35.324 249.921 35.564C250.073 35.796 250.177 36.1 250.233 36.476C250.289 36.844 250.317 37.292 250.317 37.82V41H249.381V37.856C249.381 37.336 249.349 36.92 249.285 36.608C249.229 36.296 249.113 36.072 248.937 35.936C248.761 35.792 248.489 35.72 248.121 35.72C247.921 35.72 247.713 35.74 247.497 35.78C247.289 35.812 247.093 35.856 246.909 35.912C246.725 35.968 246.573 36.02 246.453 36.068V41H245.529ZM251.986 41V35H252.91V41H251.986ZM251.986 33.68V32.6H252.91V33.68H251.986ZM254.634 43.652V35H255.558V35.432C255.686 35.352 255.846 35.272 256.038 35.192C256.238 35.104 256.45 35.032 256.674 34.976C256.898 34.912 257.114 34.88 257.322 34.88C257.834 34.88 258.25 34.988 258.57 35.204C258.89 35.412 259.126 35.74 259.278 36.188C259.438 36.636 259.518 37.216 259.518 37.928C259.518 38.712 259.426 39.34 259.242 39.812C259.066 40.276 258.782 40.612 258.39 40.82C258.006 41.02 257.506 41.12 256.89 41.12C256.642 41.12 256.39 41.104 256.134 41.072C255.886 41.04 255.694 41.012 255.558 40.988V43.652H254.634ZM256.842 40.304C257.274 40.304 257.614 40.224 257.862 40.064C258.118 39.904 258.298 39.652 258.402 39.308C258.506 38.956 258.558 38.496 258.558 37.928C258.558 37.12 258.438 36.552 258.198 36.224C257.958 35.888 257.622 35.72 257.19 35.72C256.998 35.72 256.798 35.744 256.59 35.792C256.39 35.84 256.198 35.9 256.014 35.972C255.83 36.036 255.678 36.104 255.558 36.176V40.184C255.686 40.2 255.874 40.224 256.122 40.256C256.37 40.288 256.61 40.304 256.842 40.304ZM262.846 41.12C262.662 41.12 262.438 41.108 262.174 41.084C261.918 41.06 261.662 41.032 261.406 41C261.15 40.96 260.922 40.924 260.722 40.892L260.77 40.088C260.97 40.112 261.194 40.14 261.442 40.172C261.698 40.204 261.946 40.232 262.186 40.256C262.426 40.272 262.618 40.28 262.762 40.28C263.09 40.28 263.362 40.252 263.578 40.196C263.794 40.132 263.958 40.028 264.07 39.884C264.182 39.74 264.238 39.536 264.238 39.272C264.238 39.072 264.194 38.916 264.106 38.804C264.026 38.692 263.87 38.6 263.638 38.528C263.414 38.456 263.086 38.388 262.654 38.324C262.206 38.252 261.83 38.164 261.526 38.06C261.23 37.948 261.01 37.784 260.866 37.568C260.722 37.352 260.65 37.044 260.65 36.644C260.65 36.196 260.754 35.844 260.962 35.588C261.17 35.332 261.438 35.152 261.766 35.048C262.102 34.936 262.45 34.88 262.81 34.88C263.034 34.88 263.278 34.892 263.542 34.916C263.814 34.94 264.078 34.972 264.334 35.012C264.59 35.044 264.81 35.076 264.994 35.108L264.97 35.912C264.778 35.88 264.554 35.852 264.298 35.828C264.042 35.796 263.786 35.772 263.53 35.756C263.274 35.732 263.05 35.72 262.858 35.72C262.618 35.72 262.402 35.748 262.21 35.804C262.018 35.852 261.866 35.94 261.754 36.068C261.642 36.196 261.586 36.376 261.586 36.608C261.586 36.784 261.626 36.928 261.706 37.04C261.786 37.144 261.938 37.232 262.162 37.304C262.386 37.376 262.71 37.448 263.134 37.52C263.63 37.6 264.026 37.7 264.322 37.82C264.626 37.94 264.846 38.108 264.982 38.324C265.118 38.54 265.186 38.844 265.186 39.236C265.186 39.7 265.09 40.072 264.898 40.352C264.714 40.624 264.446 40.82 264.094 40.94C263.75 41.06 263.334 41.12 262.846 41.12Z" fill="#1D4776"/>
<path d="M318.104 31.7936C318.104 31.7936 331.291 37.1226 329.574 42.271C326.684 43.3549 323.342 40.7355 321.536 36.7613C319.82 32.9678 318.104 31.7936 318.104 31.7936Z" fill="#71A542"/>
<path d="M320.542 28.6323C320.542 28.6323 333.548 31.342 332.736 36.4904C332.645 37.213 328.4 36.671 326.865 35.3162C323.613 32.6065 325.239 31.613 320.542 28.6323Z" fill="#CEC62A"/>
<path d="M321.897 25.2903C321.897 25.2903 325.871 24.4774 328.761 25.5613C331.02 26.3742 333.368 27.2774 334 30.7097C334 30.7097 331.381 31.9742 328.491 29.8968C325.691 27.8194 324.607 25.471 321.897 25.2903Z" fill="#1D4776"/>
<path d="M322.167 21.6774C322.167 21.6774 324.155 20.5935 326.684 20.6838C329.303 20.7741 333.006 21.6774 333.367 24.4774C333.367 24.4774 331.38 26.3741 327.045 23.8451C327.135 23.8451 324.877 22.0387 322.167 21.6774Z" fill="#0F80C1"/>
<path d="M321.626 18.1548C321.626 18.1548 323.884 15.8064 329.484 16.4386C329.484 16.4386 331.652 16.8902 332.645 18.8773C332.645 18.8773 330.929 21.0451 326.323 18.8773C326.323 18.9677 324.426 17.5225 321.626 18.1548Z" fill="#0099C3"/>
<path d="M320.181 14.9936C320.181 14.9936 321.626 13.0065 325.148 12.5549C325.148 12.5549 328.671 11.9226 329.936 14.271C329.936 14.271 328.671 15.8968 324.606 15.0839C320.632 14.271 320.181 14.9936 320.181 14.9936Z" fill="#71A542"/>
<path d="M318.104 11.9226C318.104 11.9226 319.187 8.21935 323.342 8.03871C323.342 8.03871 325.058 7.94839 325.871 9.03226C325.871 9.03226 324.968 11.2903 322.349 10.929C322.349 11.0194 319.007 10.4774 318.104 11.9226Z" fill="#CEC62A"/>
<path d="M315.032 9.66457C314.852 9.66457 315.665 5.60006 318.826 4.69683C318.826 4.69683 320 4.33554 320.632 4.87747C320.542 5.60005 320.542 8.40006 315.032 9.66457Z" fill="#1D4776"/>
<path d="M314.491 2.07739C314.491 2.07739 316.568 6.32255 311.871 8.129C311.871 8.129 311.239 6.05158 311.871 4.42577C312.413 2.79996 313.858 2.25804 314.491 2.07739Z" fill="#0F80C1"/>
<path d="M308.077 6.86456C308.077 6.86456 309.794 5.69036 309.523 2.34842L309.432 0.361328C309.432 0.541973 305.639 2.43875 308.077 6.86456Z" fill="#0099C3"/>
<path d="M308.078 37.3936C308.078 37.3936 316.207 51.0323 311.329 54.2839C311.329 54.2839 307.897 53.9226 307.897 46.6968C307.897 43.8968 308.529 40.1032 308.078 37.3936Z" fill="#1D4776"/>
<path d="M312.052 36.0387C312.052 36.0387 320.542 43.3548 318.284 52.0258C318.284 52.0258 315.032 52.7484 314.22 48.0516C313.407 43.3548 313.136 40.6451 312.052 36.0387Z" fill="#0F80C1"/>
<path d="M315.304 34.2322C315.304 34.2322 318.465 36.0386 320.362 38.0257C320.362 38.0257 325.781 43.3548 324.788 47.4193C324.788 47.4193 320.994 49.4064 318.104 41.6386C315.123 33.7806 316.568 37.6644 315.304 34.2322Z" fill="#0099C3"/>
<path d="M302.206 16.529C302.387 16.7096 302.387 16.8903 302.297 17.1612C302.297 17.0709 302.297 16.9806 302.206 16.9806C302.116 16.9806 302.116 17.0709 302.116 17.0709C302.116 16.9806 302.116 16.8903 302.026 16.8903C301.935 17.1612 301.935 17.4322 301.935 17.7032C301.845 17.6129 301.935 17.5225 301.845 17.5225C301.664 17.6128 301.755 17.7935 301.845 17.8838C301.574 17.3419 301.484 16.6193 301.755 15.987C301.935 15.6257 302.206 15.2645 302.568 14.9935C302.658 14.9032 302.748 14.8128 302.568 14.8128C302.477 14.8128 302.387 14.9032 302.297 14.9935C302.206 14.9935 302.206 14.9935 302.206 14.9032C302.116 14.9935 302.026 15.1741 302.026 15.2645C302.026 15.1741 302.026 15.0838 302.026 15.0838C301.845 15.1741 301.845 15.3548 301.845 15.4451C301.845 15.3548 301.845 15.2645 301.845 15.3548C301.664 15.4451 301.664 15.6258 301.664 15.8064C301.664 15.8064 301.755 15.6258 301.664 15.6258C301.484 15.7161 301.574 15.8064 301.574 15.987C301.574 15.8967 301.574 15.8967 301.574 15.8967C301.393 15.987 301.484 16.258 301.484 16.3483C301.393 16.258 301.393 16.1677 301.393 16.1677C301.303 16.258 301.303 16.4387 301.303 16.7096C301.303 16.6193 301.303 16.529 301.303 16.3483C301.213 16.4387 301.213 16.6193 301.122 16.7096C301.122 16.6193 301.122 16.4387 301.122 16.3483C301.032 16.4387 301.122 16.6193 301.122 16.7999C301.032 16.4387 301.032 15.987 301.122 15.6258C301.213 15.4451 301.303 15.2645 301.393 15.0838C301.574 14.9032 301.755 14.7225 301.845 14.6322C302.116 14.4516 302.477 14.3612 302.748 14.0903C302.658 13.9999 302.568 14.1806 302.477 14.0903C302.387 14.0903 302.387 14.0903 302.387 14.1806C302.387 14.0903 302.387 14.0903 302.387 14.0903C302.297 14.0903 302.206 14.0903 302.206 14.1806C302.206 14.0903 302.206 14.0903 302.206 14.0903C302.116 14.0903 302.026 14.1806 302.026 14.2709C302.026 14.1806 302.026 14.1806 302.026 14.1806C301.935 14.2709 301.845 14.2709 301.845 14.3612C301.845 14.2709 301.845 14.2709 301.755 14.2709C301.755 14.2709 301.664 14.3612 301.664 14.4516C301.664 14.3612 301.664 14.3612 301.574 14.3612C301.574 14.3612 301.484 14.4516 301.484 14.5419V14.4516C301.484 14.5419 301.393 14.6322 301.393 14.7225C301.393 14.6322 301.393 14.6322 301.393 14.6322C301.303 14.7225 301.393 14.8129 301.303 14.9935C301.213 14.4516 301.393 13.9999 301.935 13.8193C302.477 13.6387 302.929 13.5483 303.471 13.8193L303.561 13.729C303.471 13.5483 303.38 13.2774 303.2 13.5483C303.2 13.458 303.2 13.458 303.29 13.3677C303.2 13.187 303.11 13.3677 302.929 13.3677L303.019 13.2774C302.929 13.0967 302.839 13.3677 302.748 13.2774H302.839C302.839 13.187 302.748 13.187 302.748 13.187C302.658 13.2774 302.568 13.2774 302.568 13.3677C302.568 13.3677 302.658 13.187 302.568 13.187C302.387 13.2774 302.387 13.3677 302.297 13.458C302.297 13.2774 302.297 13.0967 302.477 13.0064C302.839 12.7354 303.29 12.7354 303.742 12.8257C304.013 12.9161 304.103 13.0967 304.284 13.3677C304.374 13.187 304.464 13.0064 304.464 12.7354C304.464 12.8257 304.464 12.8258 304.555 12.9161C304.645 12.7354 304.555 12.5548 304.735 12.2838C304.826 12.4645 304.735 12.7354 304.826 12.9161C304.916 12.8258 304.916 12.8257 304.916 12.7354C305.006 12.9161 305.006 13.187 305.097 13.3677C305.277 13.0967 305.548 12.8257 305.819 12.7354C306.361 12.6451 307.084 12.8258 307.084 13.458C306.993 13.3677 306.903 13.187 306.813 13.187C306.722 13.187 306.813 13.3677 306.813 13.3677C306.813 13.2774 306.632 13.2774 306.632 13.187C306.632 13.0967 306.542 13.187 306.542 13.2774C306.542 13.2774 306.632 13.2774 306.632 13.3677C306.542 13.2774 306.451 13.187 306.361 13.2774C306.451 13.2774 306.451 13.3677 306.451 13.3677C306.361 13.3677 306.271 13.2774 306.18 13.2774C306.09 13.3677 306.271 13.458 306.18 13.458C306.18 13.3677 306 13.3677 306 13.3677C305.91 13.458 305.729 13.729 305.819 13.729C306.361 13.5483 306.993 13.5483 307.445 13.729C307.626 13.8193 307.897 13.9096 307.987 14.1806C308.077 14.3612 308.168 14.6322 308.077 14.9032C307.987 14.8128 308.077 14.7225 307.987 14.5419V14.6322C307.987 14.4516 307.806 14.3612 307.806 14.2709C307.716 14.2709 307.716 14.2709 307.716 14.3612C307.716 14.2709 307.716 14.2709 307.626 14.1806C307.535 14.2709 307.535 14.2709 307.535 14.2709C307.535 14.0903 307.355 14.0903 307.355 14.0903V14.1806C307.264 14.1806 307.264 14.0903 307.174 14.0903C307.084 14.0903 306.993 14.1806 306.993 14.0903C306.903 13.9999 306.903 14.0903 306.903 14.1806C306.813 14.0903 306.813 14.0903 306.813 14.0903C306.722 14.1806 306.632 13.9999 306.451 14.0903C306.903 14.4516 307.445 14.5419 307.806 15.0838C308.168 15.6257 308.348 16.1677 308.168 16.7999C308.077 16.6193 308.168 16.4387 308.077 16.3483C307.987 16.4387 308.077 16.529 308.077 16.7096C307.987 16.6193 307.987 16.4387 307.897 16.3483C307.806 16.4387 307.806 16.529 307.806 16.7096C307.806 16.529 307.806 16.3483 307.626 16.1677C307.626 16.1677 307.626 16.258 307.535 16.3483C307.535 16.258 307.626 15.987 307.445 15.8967L307.355 15.987C307.355 15.8064 307.445 15.6258 307.264 15.6258C307.174 15.6258 307.264 15.8064 307.264 15.8064C307.174 15.6258 307.174 15.4451 307.084 15.3548C307.084 15.2645 307.084 15.4451 307.084 15.4451C306.993 15.3548 306.993 15.0838 306.903 15.0838C306.903 15.0838 306.903 15.1741 306.903 15.2645C306.813 15.1741 306.722 14.9935 306.722 14.9032C306.722 14.9935 306.722 14.9935 306.632 14.9935C306.542 14.9032 306.451 14.8128 306.361 14.7225V14.8128C306.632 15.1741 306.993 15.4451 307.174 15.8064C307.445 16.4387 307.355 17.1612 307.084 17.7935C307.174 17.7032 307.264 17.4322 307.084 17.4322C306.993 17.3419 307.084 17.5225 306.993 17.6128C306.993 17.3419 306.993 17.0709 306.903 16.7999C306.813 16.8903 306.813 16.8903 306.813 16.9806C306.813 16.8903 306.813 16.8903 306.813 16.8903C306.722 16.9806 306.722 16.9806 306.722 17.0709C306.632 16.8903 306.722 16.529 306.813 16.3483C306.813 16.258 306.813 16.1677 306.722 16.0774C306.722 16.1677 306.632 16.1677 306.632 16.258C306.542 16.0774 306.632 15.8064 306.542 15.6258C306.451 15.7161 306.451 15.8064 306.451 15.8064C306.361 15.7161 306.542 15.5354 306.361 15.4451C306.271 15.4451 306.361 15.6258 306.271 15.6258C306.271 15.5354 306.271 15.3548 306.18 15.2645C306.09 15.2645 306.09 15.4451 306.09 15.4451C306.09 15.3548 306 15.0838 305.91 15.0838C305.819 15.0838 305.91 15.2645 305.819 15.2645H305.729C305.729 15.2645 305.729 15.1741 305.639 15.1741C305.639 15.1741 305.548 15.1741 305.548 15.2645C305.639 15.3548 305.729 15.3548 305.819 15.5354C305.819 15.7161 305.91 15.7161 305.91 15.8967C305.91 15.8064 305.729 15.8064 305.639 15.8064C305.819 15.8967 306.09 15.987 306 16.3483C306 16.258 305.91 16.1677 305.819 16.1677C305.729 16.1677 305.639 16.1677 305.639 16.258C305.819 16.4387 306 16.6193 305.91 16.8903C305.91 16.7999 305.91 16.7096 305.729 16.7096L305.639 16.7999C305.819 17.0709 305.91 17.3419 305.819 17.6128C305.819 17.5225 305.819 17.4322 305.729 17.4322C305.639 17.4322 305.639 17.5225 305.639 17.6128V17.5225C305.548 17.6128 305.639 17.7032 305.639 17.8838C305.548 18.0645 305.548 18.0645 305.548 18.2451C305.458 18.0645 305.548 17.8838 305.458 17.7935C305.368 17.9741 305.368 18.1548 305.368 18.4257C305.368 18.3354 305.368 18.3354 305.277 18.3354C305.187 18.4258 305.277 18.5161 305.187 18.5161C305.277 18.2451 305.097 17.8838 305.097 17.6128C305.097 17.6128 305.187 17.6128 305.187 17.5225C305.187 17.4322 305.277 17.2516 305.097 17.2516C305.006 17.1612 305.097 17.4322 305.006 17.4322C305.006 17.2516 305.006 17.0709 304.826 17.0709C304.735 16.9806 304.916 17.1612 304.735 17.2516C304.555 17.3419 304.645 17.1612 304.555 17.0709C304.374 18.8774 304.464 19.7806 304.555 21.587C304.555 21.7677 304.735 22.0387 304.645 22.3096C304.555 22.3999 304.555 22.4903 304.555 22.6709C304.555 22.7612 304.645 22.9419 304.735 23.0322C304.826 23.2128 304.555 23.3935 304.645 23.5741C304.826 23.8451 304.916 24.2064 305.187 24.4774C304.555 24.4774 304.013 24.4774 303.38 24.4774C303.561 24.1161 303.922 23.7548 303.832 23.3935C303.832 23.3032 303.742 23.1225 303.742 23.0322C303.922 22.6709 303.832 22.3096 303.832 21.9483C303.832 21.858 303.922 21.7677 303.922 21.6774C304.013 19.8709 304.013 18.9677 303.922 17.0709C303.832 17.0709 303.832 17.1612 303.832 17.2516C303.832 17.3419 303.651 17.3419 303.651 17.1612C303.742 17.1612 303.742 17.0709 303.742 17.0709C303.651 16.9806 303.651 17.1612 303.561 17.1612C303.471 17.2516 303.471 17.3419 303.471 17.5225C303.38 17.4322 303.471 17.2516 303.38 17.3419C303.29 17.3419 303.38 17.5225 303.38 17.6128C303.38 17.7032 303.38 17.7032 303.471 17.7032C303.471 18.0645 303.29 18.3354 303.38 18.6064C303.29 18.5161 303.38 18.4257 303.29 18.4257C303.29 18.4257 303.29 18.4258 303.29 18.5161C303.29 18.3354 303.29 18.0645 303.2 17.8838C303.11 17.9741 303.2 18.2451 303.11 18.3354C303.019 18.2451 303.019 18.1548 303.019 17.9741C302.929 17.7935 303.11 17.7935 303.019 17.6128L302.929 17.7032C302.929 17.6129 303.019 17.5225 302.929 17.5225C302.839 17.4322 302.839 17.6129 302.839 17.7032C302.748 17.4322 302.748 17.1612 303.019 16.8903C303.11 16.7999 303.019 16.7999 303.019 16.7999C302.839 16.7999 302.839 16.9806 302.839 16.9806C302.839 16.7096 303.019 16.529 303.2 16.3483C303.2 16.258 303.11 16.258 303.019 16.258C302.929 16.3483 302.839 16.4387 302.839 16.4387C302.839 16.1677 303.019 16.0774 303.29 15.8967C303.2 15.8064 303.11 15.8967 303.019 15.987C303.11 15.8064 303.2 15.7161 303.38 15.5354C303.29 15.4451 303.29 15.4451 303.2 15.4451C303.29 15.3548 303.2 15.2645 303.29 15.2645H303.2C303.019 15.3548 303.019 15.5354 303.019 15.7161C303.019 15.6257 303.019 15.5354 302.929 15.5354C302.748 15.6257 302.839 15.8064 302.839 15.987C302.748 15.8967 302.839 15.8064 302.748 15.8064C302.568 15.8967 302.748 16.0774 302.658 16.258C302.658 16.1677 302.748 16.0774 302.658 16.0774C302.568 16.258 302.568 16.529 302.568 16.7096C302.568 16.6193 302.477 16.529 302.477 16.529C302.206 16.258 302.116 16.3483 302.206 16.529Z" fill="#969595"/>
<path d="M300.129 23.3031C301.574 23.7548 302.929 24.5676 304.103 25.4709C306.633 23.2128 310.245 22.3999 313.587 23.0322C310.426 23.1225 307.084 23.9354 304.736 26.1935C305.368 26.7354 306 27.3676 306.633 27.9096C306.813 27.6386 306.813 27.2773 307.084 27.0064C307.265 26.7354 307.716 26.5547 307.987 26.6451C308.349 26.7354 308.62 27.0967 308.529 27.458C308.349 27.9999 307.807 28.1806 307.355 27.8193C307.265 27.7289 307.174 28.0902 307.174 28.1806C307.355 28.5418 307.716 28.7225 308.078 28.8128C308.349 28.4515 308.981 28.4515 309.252 28.8128C309.433 29.1741 309.342 29.6257 309.071 29.716C308.168 30.0773 307.355 29.5354 306.633 28.9935C306.271 29.6257 305.187 30.258 304.555 29.5354C304.465 29.3547 304.374 29.1741 304.465 28.9935C304.555 28.6322 304.916 28.3612 305.278 28.4515C305.458 28.5418 305.639 28.5418 305.729 28.7225C305.82 28.8128 305.729 29.0838 305.91 29.0838C306.091 29.0838 306.271 28.9031 306.181 28.8128C305.729 27.9999 304.916 27.5483 304.194 26.916C303.471 27.5483 302.749 27.9999 302.207 28.8128C302.116 28.9031 302.387 29.1741 302.478 29.1741C302.658 29.1741 302.568 28.7225 302.749 28.6322C302.929 28.5418 303.2 28.4515 303.471 28.5418C303.742 28.6322 303.923 28.9935 303.833 29.3547C303.742 29.8064 303.291 29.987 302.839 29.8967C302.297 29.8064 301.936 29.5354 301.665 29.0838C301.033 29.6257 300.31 30.0773 299.497 29.987C299.316 29.8967 299.136 29.8064 299.045 29.6257C298.865 29.2644 298.955 28.9031 299.226 28.7225C299.497 28.5418 299.949 28.6322 300.129 28.9031C300.491 28.8128 300.852 28.6322 301.033 28.2709C301.123 28.1806 300.942 27.8193 300.852 27.9096C300.671 27.9999 300.4 28.0902 300.039 27.9999C299.768 27.9096 299.587 27.5483 299.678 27.2773C299.768 26.916 300.129 26.6451 300.491 26.7354C300.671 26.8257 300.942 26.916 301.123 27.0967C301.303 27.3677 301.303 27.7289 301.484 27.9999C302.116 27.3677 302.749 26.8257 303.381 26.2838C301.033 24.0257 297.691 23.2128 294.529 23.1225C296.426 22.6709 298.323 22.7612 300.129 23.3031Z" fill="#969595"/>
<path d="M290.104 31.7936C290.104 31.7936 276.916 37.1226 278.633 42.271C281.523 43.3549 284.865 40.7355 286.671 36.7613C288.387 32.9678 290.104 31.7936 290.104 31.7936Z" fill="#1D4776"/>
<path d="M287.755 28.6323C287.755 28.6323 274.839 31.342 275.561 36.4904C275.652 37.213 279.897 36.671 281.432 35.3162C284.594 32.6065 283.058 31.613 287.755 28.6323Z" fill="#71A542"/>
<path d="M286.49 25.2903C286.49 25.2903 282.516 24.4774 279.626 25.5613C277.368 26.3742 275.019 27.2774 274.387 30.7097C274.387 30.7097 277.007 31.9742 279.897 29.8968C282.697 27.8194 283.781 25.471 286.49 25.2903Z" fill="#0F80C1"/>
<path d="M286.671 18.1548C286.671 18.1548 284.413 15.8064 278.813 16.4386C278.813 16.4386 276.645 16.8902 275.652 18.8773C275.652 18.8773 277.278 21.0451 281.974 18.8773C281.884 18.9677 283.871 17.5225 286.671 18.1548Z" fill="#CEC62A"/>
<path d="M288.026 14.9936C288.026 14.9936 286.581 13.0065 283.058 12.5549C283.058 12.5549 279.536 11.9226 278.271 14.271C278.271 14.271 279.536 15.8968 283.6 15.0839C287.665 14.271 288.026 14.9936 288.026 14.9936Z" fill="#71A542"/>
<path d="M290.103 11.9226C290.103 11.9226 289.019 8.21935 284.864 8.03871C284.864 8.03871 283.148 7.94839 282.335 9.03226C282.335 9.03226 283.239 11.2903 285.858 10.929C285.858 11.0194 289.2 10.4774 290.103 11.9226Z" fill="#0099C3"/>
<path d="M293.265 9.66457C293.445 9.66457 292.632 5.60006 289.471 4.69683C289.471 4.69683 288.297 4.33554 287.665 4.87747C287.665 5.60005 287.755 8.40006 293.265 9.66457Z" fill="#0F80C1"/>
<path d="M293.806 2.07739C293.806 2.07739 291.729 6.32255 296.426 8.129C296.426 8.129 297.058 6.05158 296.426 4.42577C295.793 2.79996 294.348 2.25804 293.806 2.07739Z" fill="#1D4776"/>
<path d="M300.129 6.86456C300.129 6.86456 298.413 5.69036 298.684 2.34842L298.774 0.361328C298.774 0.541973 302.568 2.43875 300.129 6.86456Z" fill="#CEC62A"/>
<path d="M300.129 37.3936C300.129 37.3936 292 51.0323 296.877 54.2839C296.877 54.2839 300.31 53.9226 300.31 46.6968C300.31 43.8968 299.677 40.1032 300.129 37.3936Z" fill="#71A542"/>
<path d="M292.994 34.2322C292.994 34.2322 289.832 36.0386 287.936 38.0257C287.936 38.0257 282.516 43.3548 283.51 47.4193C283.51 47.4193 287.303 49.4064 290.194 41.6386C293.084 33.7806 291.639 37.6644 292.994 34.2322Z" fill="#0F80C1"/>
<path d="M304.103 0C304.103 0 306.813 5.69032 304.103 6.50322C301.394 5.69032 304.103 0 304.103 0Z" fill="#71A542"/>
<path d="M286.22 21.6774C286.22 21.6774 284.232 20.5935 281.703 20.6838C279.084 20.7741 275.381 21.6774 275.02 24.4774C275.02 24.4774 277.007 26.3741 281.342 23.8451C281.342 23.8451 283.6 22.0387 286.22 21.6774Z" fill="#1D4776"/>
<path d="M304.194 38.2064C303.652 39.3806 298.504 52.4774 304.194 56C309.794 52.4774 304.645 39.3806 304.194 38.2064Z" fill="#CEC62A"/>
<path d="M296.245 36.0387C296.245 36.0387 287.755 43.3548 290.104 52.0258C290.104 52.0258 293.355 52.7484 294.168 48.0516C295.071 43.3548 295.252 40.6451 296.245 36.0387Z" fill="#0099C3"/>
</svg>
